<svg class="marks" width="471" height="274" xmlns="http://www.w3.org/2000/svg"><g class="mark-group role-frame root"><path class="background" d="M51 33h400v200H51z" fill="none"/><g class="mark-group role-axis"><path class="background" d="M51.5 233.5z" pointer-events="none" fill="none"/><g class="mark-rule role-axis-grid" pointer-events="none" fill="none" stroke="#cecece"><path d="M79.5 233.5v-200M128.5 233.5v-200M177.5 233.5v-200M226.5 233.5v-200M275.5 233.5v-200M324.5 233.5v-200M373.5 233.5v-200M422.5 233.5v-200"/></g><g class="mark-rule role-axis-tick" pointer-events="none" fill="none" stroke="#cecece"><path d="M79.5 233.5v5M128.5 233.5v5M177.5 233.5v5M226.5 233.5v5M275.5 233.5v5M324.5 233.5v5M373.5 233.5v5M422.5 233.5v5"/></g><g class="mark-text role-axis-label" pointer-events="none" text-anchor="middle" font-family="Open Sans" font-size="12" font-weight="400" fill="#333"><text transform="translate(79.5 252.5)">A</text><text transform="translate(128.5 252.5)">B</text><text transform="translate(177.5 252.5)">C</text><text transform="translate(226.5 252.5)">D</text><text transform="translate(275.5 252.5)">E</text><text transform="translate(324.5 252.5)">F</text><text transform="translate(373.5 252.5)">G</text><text transform="translate(422.5 252.5)">H</text></g></g><g class="mark-group role-axis"><path class="background" d="M51.5 33.5z" pointer-events="none" fill="none"/><g class="mark-rule role-axis-grid" pointer-events="none" fill="none" stroke="#cecece"><path d="M51.5 233.5h400M51.5 213.5h400M51.5 193.5h400M51.5 173.5h400M51.5 153.5h400M51.5 133.5h400M51.5 113.5h400M51.5 93.5h400M51.5 73.5h400M51.5 53.5h400M51.5 33.5h400"/></g><g class="mark-rule role-axis-tick" pointer-events="none" fill="none" stroke="#cecece"><path d="M51.5 233.5h-5M51.5 213.5h-5M51.5 193.5h-5M51.5 173.5h-5M51.5 153.5h-5M51.5 133.5h-5M51.5 113.5h-5M51.5 93.5h-5M51.5 73.5h-5M51.5 53.5h-5M51.5 33.5h-5"/></g><g class="mark-text role-axis-label" pointer-events="none" text-anchor="end" font-family="Open Sans" font-size="12" font-weight="400" fill="#333"><text transform="translate(41.5 237.5)">0</text><text transform="translate(41.5 217.5)">10</text><text transform="translate(41.5 197.5)">20</text><text transform="translate(41.5 177.5)">30</text><text transform="translate(41.5 157.5)">40</text><text transform="translate(41.5 137.5)">50</text><text transform="translate(41.5 117.5)">60</text><text transform="translate(41.5 97.5)">70</text><text transform="translate(41.5 77.5)">80</text><text transform="translate(41.5 57.5)">90</text><text transform="translate(41.5 37.5)">100</text></g></g><g class="mark-rect role-mark" fill="#41ab5d"><path d="M56 177h47v56H56zM105 123h47v110h-47zM154 147h47v86h-47zM203 51h47v182h-47zM252 71h47v162h-47zM301 127h47v106h-47zM350 195h47v38h-47zM399 59h47v174h-47z"/></g></g></svg>