<svg class="marks" width="568" height="267" xmlns="http://www.w3.org/2000/svg"><g class="mark-group role-frame root"><path class="background" d="M44 26h500v200H44z" fill="none"/><g class="mark-group role-axis"><path class="background" d="M44.5 226.5z" pointer-events="none" fill="none"/><g class="mark-rule role-axis-grid" pointer-events="none" fill="none" stroke="#cecece"><path d="M44.5 226.5v-200M100.5 226.5v-200M155.5 226.5v-200M211.5 226.5v-200M266.5 226.5v-200M322.5 226.5v-200M377.5 226.5v-200M433.5 226.5v-200M488.5 226.5v-200M544.5 226.5v-200"/></g><g class="mark-rule role-axis-tick" pointer-events="none" fill="none" stroke="#cecece"><path d="M44.5 226.5v5M100.5 226.5v5M155.5 226.5v5M211.5 226.5v5M266.5 226.5v5M322.5 226.5v5M377.5 226.5v5M433.5 226.5v5M488.5 226.5v5M544.5 226.5v5"/></g><g class="mark-text role-axis-label" pointer-events="none" text-anchor="middle" font-family="Open Sans" font-size="12" font-weight="400" fill="#333"><text transform="translate(44.5 245.5)">0</text><text transform="translate(100.056 245.5)">1</text><text transform="translate(155.611 245.5)">2</text><text transform="translate(211.167 245.5)">3</text><text transform="translate(266.722 245.5)">4</text><text transform="translate(322.278 245.5)">5</text><text transform="translate(377.833 245.5)">6</text><text transform="translate(433.389 245.5)">7</text><text transform="translate(488.944 245.5)">8</text><text transform="translate(544.5 245.5)">9</text></g></g><g class="mark-group role-axis"><path class="background" d="M44.5 26.5z" pointer-events="none" fill="none"/><g class="mark-rule role-axis-grid" pointer-events="none" fill="none" stroke="#cecece"><path d="M44.5 226.5h500M44.5 204.5h500M44.5 182.5h500M44.5 159.5h500M44.5 137.5h500M44.5 115.5h500M44.5 93.5h500M44.5 70.5h500M44.5 48.5h500M44.5 26.5h500"/></g><g class="mark-rule role-axis-tick" pointer-events="none" fill="none" stroke="#cecece"><path d="M44.5 226.5h-5M44.5 204.5h-5M44.5 182.5h-5M44.5 159.5h-5M44.5 137.5h-5M44.5 115.5h-5M44.5 93.5h-5M44.5 70.5h-5M44.5 48.5h-5M44.5 26.5h-5"/></g><g class="mark-text role-axis-label" pointer-events="none" text-anchor="end" font-family="Open Sans" font-size="12" font-weight="400" fill="#333"><text transform="translate(34.5 230.5)">0</text><text transform="translate(34.5 208.278)">10</text><text transform="translate(34.5 186.056)">20</text><text transform="translate(34.5 163.833)">30</text><text transform="translate(34.5 141.611)">40</text><text transform="translate(34.5 119.389)">50</text><text transform="translate(34.5 97.167)">60</text><text transform="translate(34.5 74.944)">70</text><text transform="translate(34.5 52.722)">80</text><text transform="translate(34.5 30.5)">90</text></g></g><g class="mark-group role-scope"><path class="background" d="M44 26z" fill="none"/><path d="M44 163.778l55.556-33.334L155.11 46l55.556 137.778 55.555-73.334 55.556 62.223 55.555-140 55.556 155.555L488.444 74.89 544 117.11" fill="none" stroke="#41ab5d" stroke-width="2"/><g><path class="background" d="M44 26z" fill="none"/><path d="M44 181.556l55.556-33.334 55.555 55.556 55.556-11.111 55.555-73.334 55.556 44.445 55.555-84.445L432.89 166l55.555 24.444 55.556-20" fill="none" stroke="#004529" stroke-width="2"/></g></g></g></svg>