<svg class="marks" width="568" height="267" viewBox="0 0 568 267" version="1.1" xmlns="http://www.w3.org/2000/svg" xmlns:xlink="http://www.w3.org/1999/xlink"><g transform="translate(44,26)"><g class="mark-group role-frame root"><g transform="translate(0,0)"><path class="background" d="M0,0h500v200h-500Z" style="fill: none;"></path><g><g class="mark-group role-axis"><g transform="translate(0.5,200.5)"><path class="background" d="M0,0h0v0h0Z" style="pointer-events: none; fill: none;"></path><g><g class="mark-rule role-axis-grid" style="pointer-events: none;"><line transform="translate(0,0)" x2="0" y2="-200" style="fill: none; stroke: #cecece; stroke-width: 1; opacity: 1;"></line><line transform="translate(56,0)" x2="0" y2="-200" style="fill: none; stroke: #cecece; stroke-width: 1; opacity: 1;"></line><line transform="translate(111,0)" x2="0" y2="-200" style="fill: none; stroke: #cecece; stroke-width: 1; opacity: 1;"></line><line transform="translate(167,0)" x2="0" y2="-200" style="fill: none; stroke: #cecece; stroke-width: 1; opacity: 1;"></line><line transform="translate(222,0)" x2="0" y2="-200" style="fill: none; stroke: #cecece; stroke-width: 1; opacity: 1;"></line><line transform="translate(278,0)" x2="0" y2="-200" style="fill: none; stroke: #cecece; stroke-width: 1; opacity: 1;"></line><line transform="translate(333,0)" x2="0" y2="-200" style="fill: none; stroke: #cecece; stroke-width: 1; opacity: 1;"></line><line transform="translate(389,0)" x2="0" y2="-200" style="fill: none; stroke: #cecece; stroke-width: 1; opacity: 1;"></line><line transform="translate(444,0)" x2="0" y2="-200" style="fill: none; stroke: #cecece; stroke-width: 1; opacity: 1;"></line><line transform="translate(500,0)" x2="0" y2="-200" style="fill: none; stroke: #cecece; stroke-width: 1; opacity: 1;"></line></g><g class="mark-rule role-axis-tick" style="pointer-events: none;"><line transform="translate(0,0)" x2="0" y2="5" style="fill: none; stroke: #cecece; stroke-width: 1; opacity: 1;"></line><line transform="translate(56,0)" x2="0" y2="5" style="fill: none; stroke: #cecece; stroke-width: 1; opacity: 1;"></line><line transform="translate(111,0)" x2="0" y2="5" style="fill: none; stroke: #cecece; stroke-width: 1; opacity: 1;"></line><line transform="translate(167,0)" x2="0" y2="5" style="fill: none; stroke: #cecece; stroke-width: 1; opacity: 1;"></line><line transform="translate(222,0)" x2="0" y2="5" style="fill: none; stroke: #cecece; stroke-width: 1; opacity: 1;"></line><line transform="translate(278,0)" x2="0" y2="5" style="fill: none; stroke: #cecece; stroke-width: 1; opacity: 1;"></line><line transform="translate(333,0)" x2="0" y2="5" style="fill: none; stroke: #cecece; stroke-width: 1; opacity: 1;"></line><line transform="translate(389,0)" x2="0" y2="5" style="fill: none; stroke: #cecece; stroke-width: 1; opacity: 1;"></line><line transform="translate(444,0)" x2="0" y2="5" style="fill: none; stroke: #cecece; stroke-width: 1; opacity: 1;"></line><line transform="translate(500,0)" x2="0" y2="5" style="fill: none; stroke: #cecece; stroke-width: 1; opacity: 1;"></line></g><g class="mark-text role-axis-label" style="pointer-events: none;"><text text-anchor="middle" transform="translate(0,19)" style="font-family: Open Sans; font-size: 12px; font-weight: 400; fill: #333333; opacity: 1;">0</text><text text-anchor="middle" transform="translate(55.55555555555556,19)" style="font-family: Open Sans; font-size: 12px; font-weight: 400; fill: #333333; opacity: 1;">1</text><text text-anchor="middle" transform="translate(111.11111111111111,19)" style="font-family: Open Sans; font-size: 12px; font-weight: 400; fill: #333333; opacity: 1;">2</text><text text-anchor="middle" transform="translate(166.66666666666669,19)" style="font-family: Open Sans; font-size: 12px; font-weight: 400; fill: #333333; opacity: 1;">3</text><text text-anchor="middle" transform="translate(222.22222222222223,19)" style="font-family: Open Sans; font-size: 12px; font-weight: 400; fill: #333333; opacity: 1;">4</text><text text-anchor="middle" transform="translate(277.77777777777777,19)" style="font-family: Open Sans; font-size: 12px; font-weight: 400; fill: #333333; opacity: 1;">5</text><text text-anchor="middle" transform="translate(333.33333333333337,19)" style="font-family: Open Sans; font-size: 12px; font-weight: 400; fill: #333333; opacity: 1;">6</text><text text-anchor="middle" transform="translate(388.8888888888889,19)" style="font-family: Open Sans; font-size: 12px; font-weight: 400; fill: #333333; opacity: 1;">7</text><text text-anchor="middle" transform="translate(444.44444444444446,19)" style="font-family: Open Sans; font-size: 12px; font-weight: 400; fill: #333333; opacity: 1;">8</text><text text-anchor="middle" transform="translate(500,19)" style="font-family: Open Sans; font-size: 12px; font-weight: 400; fill: #333333; opacity: 1;">9</text></g></g><path class="foreground" d="" style="pointer-events: none; display: none; fill: none;"></path></g></g><g class="mark-group role-axis"><g transform="translate(0.5,0.5)"><path class="background" d="M0,0h0v0h0Z" style="pointer-events: none; fill: none;"></path><g><g class="mark-rule role-axis-grid" style="pointer-events: none;"><line transform="translate(0,200)" x2="500" y2="0" style="fill: none; stroke: #cecece; stroke-width: 1; opacity: 1;"></line><line transform="translate(0,178)" x2="500" y2="0" style="fill: none; stroke: #cecece; stroke-width: 1; opacity: 1;"></line><line transform="translate(0,156)" x2="500" y2="0" style="fill: none; stroke: #cecece; stroke-width: 1; opacity: 1;"></line><line transform="translate(0,133)" x2="500" y2="0" style="fill: none; stroke: #cecece; stroke-width: 1; opacity: 1;"></line><line transform="translate(0,111)" x2="500" y2="0" style="fill: none; stroke: #cecece; stroke-width: 1; opacity: 1;"></line><line transform="translate(0,89)" x2="500" y2="0" style="fill: none; stroke: #cecece; stroke-width: 1; opacity: 1;"></line><line transform="translate(0,67)" x2="500" y2="0" style="fill: none; stroke: #cecece; stroke-width: 1; opacity: 1;"></line><line transform="translate(0,44)" x2="500" y2="0" style="fill: none; stroke: #cecece; stroke-width: 1; opacity: 1;"></line><line transform="translate(0,22)" x2="500" y2="0" style="fill: none; stroke: #cecece; stroke-width: 1; opacity: 1;"></line><line transform="translate(0,0)" x2="500" y2="0" style="fill: none; stroke: #cecece; stroke-width: 1; opacity: 1;"></line></g><g class="mark-rule role-axis-tick" style="pointer-events: none;"><line transform="translate(0,200)" x2="-5" y2="0" style="fill: none; stroke: #cecece; stroke-width: 1; opacity: 1;"></line><line transform="translate(0,178)" x2="-5" y2="0" style="fill: none; stroke: #cecece; stroke-width: 1; opacity: 1;"></line><line transform="translate(0,156)" x2="-5" y2="0" style="fill: none; stroke: #cecece; stroke-width: 1; opacity: 1;"></line><line transform="translate(0,133)" x2="-5" y2="0" style="fill: none; stroke: #cecece; stroke-width: 1; opacity: 1;"></line><line transform="translate(0,111)" x2="-5" y2="0" style="fill: none; stroke: #cecece; stroke-width: 1; opacity: 1;"></line><line transform="translate(0,89)" x2="-5" y2="0" style="fill: none; stroke: #cecece; stroke-width: 1; opacity: 1;"></line><line transform="translate(0,67)" x2="-5" y2="0" style="fill: none; stroke: #cecece; stroke-width: 1; opacity: 1;"></line><line transform="translate(0,44)" x2="-5" y2="0" style="fill: none; stroke: #cecece; stroke-width: 1; opacity: 1;"></line><line transform="translate(0,22)" x2="-5" y2="0" style="fill: none; stroke: #cecece; stroke-width: 1; opacity: 1;"></line><line transform="translate(0,0)" x2="-5" y2="0" style="fill: none; stroke: #cecece; stroke-width: 1; opacity: 1;"></line></g><g class="mark-text role-axis-label" style="pointer-events: none;"><text text-anchor="end" transform="translate(-10,204)" style="font-family: Open Sans; font-size: 12px; font-weight: 400; fill: #333333; opacity: 1;">0</text><text text-anchor="end" transform="translate(-10,181.77777777777777)" style="font-family: Open Sans; font-size: 12px; font-weight: 400; fill: #333333; opacity: 1;">10</text><text text-anchor="end" transform="translate(-10,159.55555555555557)" style="font-family: Open Sans; font-size: 12px; font-weight: 400; fill: #333333; opacity: 1;">20</text><text text-anchor="end" transform="translate(-10,137.33333333333334)" style="font-family: Open Sans; font-size: 12px; font-weight: 400; fill: #333333; opacity: 1;">30</text><text text-anchor="end" transform="translate(-10,115.11111111111111)" style="font-family: Open Sans; font-size: 12px; font-weight: 400; fill: #333333; opacity: 1;">40</text><text text-anchor="end" transform="translate(-10,92.88888888888889)" style="font-family: Open Sans; font-size: 12px; font-weight: 400; fill: #333333; opacity: 1;">50</text><text text-anchor="end" transform="translate(-10,70.66666666666667)" style="font-family: Open Sans; font-size: 12px; font-weight: 400; fill: #333333; opacity: 1;">60</text><text text-anchor="end" transform="translate(-10,48.44444444444444)" style="font-family: Open Sans; font-size: 12px; font-weight: 400; fill: #333333; opacity: 1;">70</text><text text-anchor="end" transform="translate(-10,26.222222222222232)" style="font-family: Open Sans; font-size: 12px; font-weight: 400; fill: #333333; opacity: 1;">80</text><text text-anchor="end" transform="translate(-10,4)" style="font-family: Open Sans; font-size: 12px; font-weight: 400; fill: #333333; opacity: 1;">90</text></g></g><path class="foreground" d="" style="pointer-events: none; display: none; fill: none;"></path></g></g><g class="mark-group role-scope"><g transform="translate(0,0)"><path class="background" d="M0,0h0v0h0Z" style="fill: none;"></path><g><g class="mark-line role-mark"><path d="M0,137.77777777777777L55.55555555555556,104.44444444444443L111.11111111111111,19.999999999999996L166.66666666666669,157.77777777777777L222.22222222222223,84.44444444444446L277.77777777777777,146.66666666666669L333.33333333333337,6.666666666666665L388.8888888888889,162.22222222222223L444.44444444444446,48.88888888888889L500,91.11111111111111" style="fill: none; stroke: #41AB5D; stroke-opacity: 1; stroke-width: 2;"></path></g></g><path class="foreground" d="" style="display: none; fill: none;"></path></g><g transform="translate(0,0)"><path class="background" d="M0,0h0v0h0Z" style="fill: none;"></path><g><g class="mark-line role-mark"><path d="M0,155.55555555555557L55.55555555555556,122.22222222222223L111.11111111111111,177.77777777777777L166.66666666666669,166.66666666666669L222.22222222222223,93.33333333333333L277.77777777777777,137.77777777777777L333.33333333333337,53.33333333333334L388.8888888888889,140L444.44444444444446,164.44444444444443L500,144.44444444444443" style="fill: none; stroke: #004529; stroke-opacity: 1; stroke-width: 2;"></path></g></g><path class="foreground" d="" style="display: none; fill: none;"></path></g></g></g><path class="foreground" d="" style="display: none; fill: none;"></path></g></g></g></svg>