<svg class="marks" width="571" height="267" xmlns="http://www.w3.org/2000/svg"><g class="mark-group role-frame root"><path class="background" d="M51 26h500v200H51z" fill="none"/><g class="mark-group role-axis"><path class="background" d="M51.5 226.5z" pointer-events="none" fill="none"/><g class="mark-rule role-axis-grid" pointer-events="none" fill="none" stroke="#cecece"><path d="M76.5 226.5v-200M126.5 226.5v-200M176.5 226.5v-200M226.5 226.5v-200M276.5 226.5v-200M326.5 226.5v-200M376.5 226.5v-200M426.5 226.5v-200M476.5 226.5v-200M526.5 226.5v-200"/></g><g class="mark-rule role-axis-tick" pointer-events="none" fill="none" stroke="#cecece"><path d="M76.5 226.5v5M126.5 226.5v5M176.5 226.5v5M226.5 226.5v5M276.5 226.5v5M326.5 226.5v5M376.5 226.5v5M426.5 226.5v5M476.5 226.5v5M526.5 226.5v5"/></g><g class="mark-text role-axis-label" pointer-events="none" text-anchor="middle" font-family="Open Sans" font-size="12" font-weight="400" fill="#333"><text transform="translate(76 245.5)">0</text><text transform="translate(126 245.5)">1</text><text transform="translate(176 245.5)">2</text><text transform="translate(226 245.5)">3</text><text transform="translate(276 245.5)">4</text><text transform="translate(326 245.5)">5</text><text transform="translate(376 245.5)">6</text><text transform="translate(426 245.5)">7</text><text transform="translate(476 245.5)">8</text><text transform="translate(526 245.5)">9</text></g></g><g class="mark-group role-axis"><path class="background" d="M51.5 26.5z" pointer-events="none" fill="none"/><g class="mark-rule role-axis-grid" pointer-events="none" fill="none" stroke="#cecece"><path d="M51.5 226.5h500M51.5 201.5h500M51.5 176.5h500M51.5 151.5h500M51.5 126.5h500M51.5 101.5h500M51.5 76.5h500M51.5 51.5h500M51.5 26.5h500"/></g><g class="mark-rule role-axis-tick" pointer-events="none" fill="none" stroke="#cecece"><path d="M51.5 226.5h-5M51.5 201.5h-5M51.5 176.5h-5M51.5 151.5h-5M51.5 126.5h-5M51.5 101.5h-5M51.5 76.5h-5M51.5 51.5h-5M51.5 26.5h-5"/></g><g class="mark-text role-axis-label" pointer-events="none" text-anchor="end" font-family="Open Sans" font-size="12" font-weight="400" fill="#333"><text transform="translate(41.5 230.5)">0</text><text transform="translate(41.5 205.5)">20</text><text transform="translate(41.5 180.5)">40</text><text transform="translate(41.5 155.5)">60</text><text transform="translate(41.5 130.5)">80</text><text transform="translate(41.5 105.5)">100</text><text transform="translate(41.5 80.5)">120</text><text transform="translate(41.5 55.5)">140</text><text transform="translate(41.5 30.5)">160</text></g></g><g class="mark-rect role-mark"><path d="M51 191h49v35H51z" fill="#41ab5d"/><path d="M51 122.25h49V191H51z" fill="#004529"/><path d="M101 172.25h49V226h-49z" fill="#41ab5d"/><path d="M101 58.5h49v113.75h-49z" fill="#004529"/><path d="M151 124.75h49V226h-49z" fill="#41ab5d"/><path d="M151 58.5h49v66.25h-49z" fill="#004529"/><path d="M201 202.25h49V226h-49z" fill="#41ab5d"/><path d="M201 93.5h49v108.75h-49z" fill="#004529"/><path d="M251 161h49v65h-49z" fill="#41ab5d"/><path d="M251 101h49v60h-49z" fill="#004529"/><path d="M301 196h49v30h-49z" fill="#41ab5d"/><path d="M301 134.75h49V196h-49z" fill="#004529"/><path d="M351 117.25h49V226h-49z" fill="#41ab5d"/><path d="M351 34.75h49v82.5h-49z" fill="#004529"/><path d="M401 204.75h49V226h-49z" fill="#41ab5d"/><path d="M401 171h49v33.75h-49z" fill="#004529"/><path d="M451 141h49v85h-49z" fill="#41ab5d"/><path d="M451 121h49v20h-49z" fill="#004529"/><path d="M501 164.75h49V226h-49z" fill="#41ab5d"/><path d="M501 146h49v18.75h-49z" fill="#004529"/></g></g></svg>