<svg class="marks" width="571" height="267" viewBox="0 0 571 267" version="1.1" xmlns="http://www.w3.org/2000/svg" xmlns:xlink="http://www.w3.org/1999/xlink"><g transform="translate(51,26)"><g class="mark-group role-frame root"><g transform="translate(0,0)"><path class="background" d="M0,0h500v200h-500Z" style="fill: none;"></path><g><g class="mark-group role-axis"><g transform="translate(0.5,200.5)"><path class="background" d="M0,0h0v0h0Z" style="pointer-events: none; fill: none;"></path><g><g class="mark-rule role-axis-grid" style="pointer-events: none;"><line transform="translate(25,0)" x2="0" y2="-200" style="fill: none; stroke: #cecece; stroke-width: 1; opacity: 1;"></line><line transform="translate(75,0)" x2="0" y2="-200" style="fill: none; stroke: #cecece; stroke-width: 1; opacity: 1;"></line><line transform="translate(125,0)" x2="0" y2="-200" style="fill: none; stroke: #cecece; stroke-width: 1; opacity: 1;"></line><line transform="translate(175,0)" x2="0" y2="-200" style="fill: none; stroke: #cecece; stroke-width: 1; opacity: 1;"></line><line transform="translate(225,0)" x2="0" y2="-200" style="fill: none; stroke: #cecece; stroke-width: 1; opacity: 1;"></line><line transform="translate(275,0)" x2="0" y2="-200" style="fill: none; stroke: #cecece; stroke-width: 1; opacity: 1;"></line><line transform="translate(325,0)" x2="0" y2="-200" style="fill: none; stroke: #cecece; stroke-width: 1; opacity: 1;"></line><line transform="translate(375,0)" x2="0" y2="-200" style="fill: none; stroke: #cecece; stroke-width: 1; opacity: 1;"></line><line transform="translate(425,0)" x2="0" y2="-200" style="fill: none; stroke: #cecece; stroke-width: 1; opacity: 1;"></line><line transform="translate(475,0)" x2="0" y2="-200" style="fill: none; stroke: #cecece; stroke-width: 1; opacity: 1;"></line></g><g class="mark-rule role-axis-tick" style="pointer-events: none;"><line transform="translate(25,0)" x2="0" y2="5" style="fill: none; stroke: #cecece; stroke-width: 1; opacity: 1;"></line><line transform="translate(75,0)" x2="0" y2="5" style="fill: none; stroke: #cecece; stroke-width: 1; opacity: 1;"></line><line transform="translate(125,0)" x2="0" y2="5" style="fill: none; stroke: #cecece; stroke-width: 1; opacity: 1;"></line><line transform="translate(175,0)" x2="0" y2="5" style="fill: none; stroke: #cecece; stroke-width: 1; opacity: 1;"></line><line transform="translate(225,0)" x2="0" y2="5" style="fill: none; stroke: #cecece; stroke-width: 1; opacity: 1;"></line><line transform="translate(275,0)" x2="0" y2="5" style="fill: none; stroke: #cecece; stroke-width: 1; opacity: 1;"></line><line transform="translate(325,0)" x2="0" y2="5" style="fill: none; stroke: #cecece; stroke-width: 1; opacity: 1;"></line><line transform="translate(375,0)" x2="0" y2="5" style="fill: none; stroke: #cecece; stroke-width: 1; opacity: 1;"></line><line transform="translate(425,0)" x2="0" y2="5" style="fill: none; stroke: #cecece; stroke-width: 1; opacity: 1;"></line><line transform="translate(475,0)" x2="0" y2="5" style="fill: none; stroke: #cecece; stroke-width: 1; opacity: 1;"></line></g><g class="mark-text role-axis-label" style="pointer-events: none;"><text text-anchor="middle" transform="translate(24.5,19)" style="font-family: Open Sans; font-size: 12px; font-weight: 400; fill: #333333; opacity: 1;">0</text><text text-anchor="middle" transform="translate(74.5,19)" style="font-family: Open Sans; font-size: 12px; font-weight: 400; fill: #333333; opacity: 1;">1</text><text text-anchor="middle" transform="translate(124.5,19)" style="font-family: Open Sans; font-size: 12px; font-weight: 400; fill: #333333; opacity: 1;">2</text><text text-anchor="middle" transform="translate(174.5,19)" style="font-family: Open Sans; font-size: 12px; font-weight: 400; fill: #333333; opacity: 1;">3</text><text text-anchor="middle" transform="translate(224.5,19)" style="font-family: Open Sans; font-size: 12px; font-weight: 400; fill: #333333; opacity: 1;">4</text><text text-anchor="middle" transform="translate(274.5,19)" style="font-family: Open Sans; font-size: 12px; font-weight: 400; fill: #333333; opacity: 1;">5</text><text text-anchor="middle" transform="translate(324.5,19)" style="font-family: Open Sans; font-size: 12px; font-weight: 400; fill: #333333; opacity: 1;">6</text><text text-anchor="middle" transform="translate(374.5,19)" style="font-family: Open Sans; font-size: 12px; font-weight: 400; fill: #333333; opacity: 1;">7</text><text text-anchor="middle" transform="translate(424.5,19)" style="font-family: Open Sans; font-size: 12px; font-weight: 400; fill: #333333; opacity: 1;">8</text><text text-anchor="middle" transform="translate(474.5,19)" style="font-family: Open Sans; font-size: 12px; font-weight: 400; fill: #333333; opacity: 1;">9</text></g></g><path class="foreground" d="" style="pointer-events: none; display: none; fill: none;"></path></g></g><g class="mark-group role-axis"><g transform="translate(0.5,0.5)"><path class="background" d="M0,0h0v0h0Z" style="pointer-events: none; fill: none;"></path><g><g class="mark-rule role-axis-grid" style="pointer-events: none;"><line transform="translate(0,200)" x2="500" y2="0" style="fill: none; stroke: #cecece; stroke-width: 1; opacity: 1;"></line><line transform="translate(0,175)" x2="500" y2="0" style="fill: none; stroke: #cecece; stroke-width: 1; opacity: 1;"></line><line transform="translate(0,150)" x2="500" y2="0" style="fill: none; stroke: #cecece; stroke-width: 1; opacity: 1;"></line><line transform="translate(0,125)" x2="500" y2="0" style="fill: none; stroke: #cecece; stroke-width: 1; opacity: 1;"></line><line transform="translate(0,100)" x2="500" y2="0" style="fill: none; stroke: #cecece; stroke-width: 1; opacity: 1;"></line><line transform="translate(0,75)" x2="500" y2="0" style="fill: none; stroke: #cecece; stroke-width: 1; opacity: 1;"></line><line transform="translate(0,50)" x2="500" y2="0" style="fill: none; stroke: #cecece; stroke-width: 1; opacity: 1;"></line><line transform="translate(0,25)" x2="500" y2="0" style="fill: none; stroke: #cecece; stroke-width: 1; opacity: 1;"></line><line transform="translate(0,0)" x2="500" y2="0" style="fill: none; stroke: #cecece; stroke-width: 1; opacity: 1;"></line></g><g class="mark-rule role-axis-tick" style="pointer-events: none;"><line transform="translate(0,200)" x2="-5" y2="0" style="fill: none; stroke: #cecece; stroke-width: 1; opacity: 1;"></line><line transform="translate(0,175)" x2="-5" y2="0" style="fill: none; stroke: #cecece; stroke-width: 1; opacity: 1;"></line><line transform="translate(0,150)" x2="-5" y2="0" style="fill: none; stroke: #cecece; stroke-width: 1; opacity: 1;"></line><line transform="translate(0,125)" x2="-5" y2="0" style="fill: none; stroke: #cecece; stroke-width: 1; opacity: 1;"></line><line transform="translate(0,100)" x2="-5" y2="0" style="fill: none; stroke: #cecece; stroke-width: 1; opacity: 1;"></line><line transform="translate(0,75)" x2="-5" y2="0" style="fill: none; stroke: #cecece; stroke-width: 1; opacity: 1;"></line><line transform="translate(0,50)" x2="-5" y2="0" style="fill: none; stroke: #cecece; stroke-width: 1; opacity: 1;"></line><line transform="translate(0,25)" x2="-5" y2="0" style="fill: none; stroke: #cecece; stroke-width: 1; opacity: 1;"></line><line transform="translate(0,0)" x2="-5" y2="0" style="fill: none; stroke: #cecece; stroke-width: 1; opacity: 1;"></line></g><g class="mark-text role-axis-label" style="pointer-events: none;"><text text-anchor="end" transform="translate(-10,204)" style="font-family: Open Sans; font-size: 12px; font-weight: 400; fill: #333333; opacity: 1;">0</text><text text-anchor="end" transform="translate(-10,179)" style="font-family: Open Sans; font-size: 12px; font-weight: 400; fill: #333333; opacity: 1;">20</text><text text-anchor="end" transform="translate(-10,154)" style="font-family: Open Sans; font-size: 12px; font-weight: 400; fill: #333333; opacity: 1;">40</text><text text-anchor="end" transform="translate(-10,129)" style="font-family: Open Sans; font-size: 12px; font-weight: 400; fill: #333333; opacity: 1;">60</text><text text-anchor="end" transform="translate(-10,104)" style="font-family: Open Sans; font-size: 12px; font-weight: 400; fill: #333333; opacity: 1;">80</text><text text-anchor="end" transform="translate(-10,79)" style="font-family: Open Sans; font-size: 12px; font-weight: 400; fill: #333333; opacity: 1;">100</text><text text-anchor="end" transform="translate(-10,54)" style="font-family: Open Sans; font-size: 12px; font-weight: 400; fill: #333333; opacity: 1;">120</text><text text-anchor="end" transform="translate(-10,29)" style="font-family: Open Sans; font-size: 12px; font-weight: 400; fill: #333333; opacity: 1;">140</text><text text-anchor="end" transform="translate(-10,4)" style="font-family: Open Sans; font-size: 12px; font-weight: 400; fill: #333333; opacity: 1;">160</text></g></g><path class="foreground" d="" style="pointer-events: none; display: none; fill: none;"></path></g></g><g class="mark-rect role-mark"><path d="M0,165h49v35h-49Z" style="fill: #41AB5D;"></path><path d="M0,96.24999999999999h49v68.75000000000001h-49Z" style="fill: #004529;"></path><path d="M50,146.25h49v53.75h-49Z" style="fill: #41AB5D;"></path><path d="M50,32.49999999999999h49v113.75h-49Z" style="fill: #004529;"></path><path d="M100,98.75h49v101.25h-49Z" style="fill: #41AB5D;"></path><path d="M100,32.49999999999999h49v66.25h-49Z" style="fill: #004529;"></path><path d="M150,176.25h49v23.75h-49Z" style="fill: #41AB5D;"></path><path d="M150,67.5h49v108.75h-49Z" style="fill: #004529;"></path><path d="M200,135h49v65h-49Z" style="fill: #41AB5D;"></path><path d="M200,75h49v60h-49Z" style="fill: #004529;"></path><path d="M250,170h49v30h-49Z" style="fill: #41AB5D;"></path><path d="M250,108.74999999999999h49v61.250000000000014h-49Z" style="fill: #004529;"></path><path d="M300,91.25000000000001h49v108.74999999999999h-49Z" style="fill: #41AB5D;"></path><path d="M300,8.749999999999991h49v82.50000000000003h-49Z" style="fill: #004529;"></path><path d="M350,178.75h49v21.25h-49Z" style="fill: #41AB5D;"></path><path d="M350,145h49v33.75h-49Z" style="fill: #004529;"></path><path d="M400,114.99999999999999h49v85.00000000000001h-49Z" style="fill: #41AB5D;"></path><path d="M400,95h49v19.999999999999986h-49Z" style="fill: #004529;"></path><path d="M450,138.75h49v61.25h-49Z" style="fill: #41AB5D;"></path><path d="M450,120h49v18.75h-49Z" style="fill: #004529;"></path></g></g><path class="foreground" d="" style="display: none; fill: none;"></path></g></g></g></svg>