<svg class="marks" width="686" height="490" xmlns="http://www.w3.org/2000/svg"><g class="mark-group role-frame root"><path class="background" d="M33 20h620v400H33z" fill="none"/><g class="mark-text role-mark" pointer-events="none" text-anchor="middle" font-family="Open Sans" font-size="12" font-weight="400"><text transform="translate(343 413.5)">0</text><text transform="translate(343 392.5)">5</text><text transform="translate(343 371.5)">10</text><text transform="translate(343 350.5)">15</text><text transform="translate(343 329.5)">20</text><text transform="translate(343 308.5)">25</text><text transform="translate(343 287.5)">30</text><text transform="translate(343 266.5)">35</text><text transform="translate(343 245.5)">40</text><text transform="translate(343 224.5)">45</text><text transform="translate(343 203.5)">50</text><text transform="translate(343 182.5)">55</text><text transform="translate(343 161.5)">60</text><text transform="translate(343 140.5)">65</text><text transform="translate(343 119.5)">70</text><text transform="translate(343 98.5)">75</text><text transform="translate(343 77.5)">80</text><text transform="translate(343 56.5)">85</text><text transform="translate(343 35.5)">90</text></g><g class="mark-group role-scope"><path class="background" d="M33 20v400z" fill="none"/><g class="mark-group role-axis"><path class="background" d="M33.5 420.5z" pointer-events="none" fill="none"/><g class="mark-rule role-axis-grid" pointer-events="none" fill="none" stroke="#cecece"><path d="M333.5 420.5v-400M308.5 420.5v-400M283.5 420.5v-400M258.5 420.5v-400M233.5 420.5v-400M208.5 420.5v-400M183.5 420.5v-400M158.5 420.5v-400M133.5 420.5v-400M108.5 420.5v-400M83.5 420.5v-400M58.5 420.5v-400M33.5 420.5v-400"/></g><g class="mark-rule role-axis-tick" pointer-events="none" fill="none" stroke="#cecece"><path d="M333.5 420.5v5M308.5 420.5v5M283.5 420.5v5M258.5 420.5v5M233.5 420.5v5M208.5 420.5v5M183.5 420.5v5M158.5 420.5v5M133.5 420.5v5M108.5 420.5v5M83.5 420.5v5M58.5 420.5v5M33.5 420.5v5"/></g><g class="mark-text role-axis-label" pointer-events="none" text-anchor="middle" font-family="Open Sans" font-size="12" font-weight="400" fill="#333"><text transform="translate(333.5 439.5)">0M</text><text transform="translate(308.5 439.5)">1M</text><text transform="translate(283.5 439.5)">2M</text><text transform="translate(258.5 439.5)">3M</text><text transform="translate(233.5 439.5)">4M</text><text transform="translate(208.5 439.5)">5M</text><text transform="translate(183.5 439.5)">6M</text><text transform="translate(158.5 439.5)">7M</text><text transform="translate(133.5 439.5)">8M</text><text transform="translate(108.5 439.5)">9M</text><text transform="translate(83.5 439.5)">10M</text><text transform="translate(58.5 439.5)">11M</text><text transform="translate(33.5 439.5)">12M</text></g><text text-anchor="middle" transform="translate(183.5 467.5)" font-family="Cardo" font-size="14" font-weight="700" fill="#333" pointer-events="none">Females</text></g><g class="mark-rect role-mark" fill="#004529"><path d="M100.232 399H333v20H100.232zM81.26 378H333v20H81.26zM82.437 357H333v20H82.437zM90.683 336H333v20H90.683zM99.894 315H333v20H99.894zM95.037 294H333v20H95.037zM80.018 273H333v20H80.018zM42.109 252H333v20H42.109zM45.786 231H333v20H45.786zM76.469 210H333v20H76.469zM110.222 189H333v20H110.222zM159.968 168H333v20H159.968zM191.276 147H333v20H191.276zM212.88 126H333v20H212.88zM203.379 105H333v20H203.379zM224.109 84H333v20H224.109zM252.453 63H333v20h-80.547zM283.471 42H333v20h-49.529zM306.385 21H333v20h-26.615z"/></g></g><g class="mark-group role-scope"><path class="background" d="M353 20v400z" fill="none"/><g class="mark-group role-axis"><path class="background" d="M353.5 420.5z" pointer-events="none" fill="none"/><g class="mark-rule role-axis-grid" pointer-events="none" fill="none" stroke="#cecece"><path d="M353.5 420.5v-400M378.5 420.5v-400M403.5 420.5v-400M428.5 420.5v-400M453.5 420.5v-400M478.5 420.5v-400M503.5 420.5v-400M528.5 420.5v-400M553.5 420.5v-400M578.5 420.5v-400M603.5 420.5v-400M628.5 420.5v-400M653.5 420.5v-400"/></g><g class="mark-rule role-axis-tick" pointer-events="none" fill="none" stroke="#cecece"><path d="M353.5 420.5v5M378.5 420.5v5M403.5 420.5v5M428.5 420.5v5M453.5 420.5v5M478.5 420.5v5M503.5 420.5v5M528.5 420.5v5M553.5 420.5v5M578.5 420.5v5M603.5 420.5v5M628.5 420.5v5M653.5 420.5v5"/></g><g class="mark-text role-axis-label" pointer-events="none" text-anchor="middle" font-family="Open Sans" font-size="12" font-weight="400" fill="#333"><text transform="translate(353.5 439.5)">0M</text><text transform="translate(378.5 439.5)">1M</text><text transform="translate(403.5 439.5)">2M</text><text transform="translate(428.5 439.5)">3M</text><text transform="translate(453.5 439.5)">4M</text><text transform="translate(478.5 439.5)">5M</text><text transform="translate(503.5 439.5)">6M</text><text transform="translate(528.5 439.5)">7M</text><text transform="translate(553.5 439.5)">8M</text><text transform="translate(578.5 439.5)">9M</text><text transform="translate(603.5 439.5)">10M</text><text transform="translate(628.5 439.5)">11M</text><text transform="translate(653.5 439.5)">12M</text></g><text text-anchor="middle" transform="translate(503.5 467.5)" font-family="Cardo" font-size="14" font-weight="700" fill="#333" pointer-events="none">Males</text></g><g class="mark-rect role-mark" fill="#41ab5d"><path d="M353 399h243.385v20H353zM353 378h263.804v20H353zM353 357h264.08v20H353zM353 336h255.935v20H353zM353 315h243.283v20H353zM353 294h241.487v20H353zM353 273h255.147v20H353zM353 252h286.88v20H353zM353 231h283.006v20H353zM353 210h248.125v20H353zM353 189h212.698v20H353zM353 168h161.477v20H353zM353 147h128.085v20H353zM353 126h111.34v20H353zM353 105h94.804v20H353zM353 84h72.816v20H353zM353 63h47.566v20H353zM353 42h24.259v20H353zM353 21h8.408v20H353z"/></g></g></g></svg>