<svg class="marks" width="471" height="274" viewBox="0 0 471 274" version="1.1" xmlns="http://www.w3.org/2000/svg" xmlns:xlink="http://www.w3.org/1999/xlink"><g transform="translate(51,33)"><g class="mark-group role-frame root"><g transform="translate(0,0)"><path class="background" d="M0,0h400v200h-400Z" style="fill: none;"></path><g><g class="mark-group role-axis"><g transform="translate(0.5,200.5)"><path class="background" d="M0,0h0v0h0Z" style="pointer-events: none; fill: none;"></path><g><g class="mark-rule role-axis-grid" style="pointer-events: none;"><line transform="translate(28,0)" x2="0" y2="-200" style="fill: none; stroke: #cecece; stroke-width: 1; opacity: 1;"></line><line transform="translate(77,0)" x2="0" y2="-200" style="fill: none; stroke: #cecece; stroke-width: 1; opacity: 1;"></line><line transform="translate(126,0)" x2="0" y2="-200" style="fill: none; stroke: #cecece; stroke-width: 1; opacity: 1;"></line><line transform="translate(175,0)" x2="0" y2="-200" style="fill: none; stroke: #cecece; stroke-width: 1; opacity: 1;"></line><line transform="translate(224,0)" x2="0" y2="-200" style="fill: none; stroke: #cecece; stroke-width: 1; opacity: 1;"></line><line transform="translate(273,0)" x2="0" y2="-200" style="fill: none; stroke: #cecece; stroke-width: 1; opacity: 1;"></line><line transform="translate(322,0)" x2="0" y2="-200" style="fill: none; stroke: #cecece; stroke-width: 1; opacity: 1;"></line><line transform="translate(371,0)" x2="0" y2="-200" style="fill: none; stroke: #cecece; stroke-width: 1; opacity: 1;"></line></g><g class="mark-rule role-axis-tick" style="pointer-events: none;"><line transform="translate(28,0)" x2="0" y2="5" style="fill: none; stroke: #cecece; stroke-width: 1; opacity: 1;"></line><line transform="translate(77,0)" x2="0" y2="5" style="fill: none; stroke: #cecece; stroke-width: 1; opacity: 1;"></line><line transform="translate(126,0)" x2="0" y2="5" style="fill: none; stroke: #cecece; stroke-width: 1; opacity: 1;"></line><line transform="translate(175,0)" x2="0" y2="5" style="fill: none; stroke: #cecece; stroke-width: 1; opacity: 1;"></line><line transform="translate(224,0)" x2="0" y2="5" style="fill: none; stroke: #cecece; stroke-width: 1; opacity: 1;"></line><line transform="translate(273,0)" x2="0" y2="5" style="fill: none; stroke: #cecece; stroke-width: 1; opacity: 1;"></line><line transform="translate(322,0)" x2="0" y2="5" style="fill: none; stroke: #cecece; stroke-width: 1; opacity: 1;"></line><line transform="translate(371,0)" x2="0" y2="5" style="fill: none; stroke: #cecece; stroke-width: 1; opacity: 1;"></line></g><g class="mark-text role-axis-label" style="pointer-events: none;"><text text-anchor="middle" transform="translate(28,19)" style="font-family: Open Sans; font-size: 12px; font-weight: 400; fill: #333333; opacity: 1;">A</text><text text-anchor="middle" transform="translate(77,19)" style="font-family: Open Sans; font-size: 12px; font-weight: 400; fill: #333333; opacity: 1;">B</text><text text-anchor="middle" transform="translate(126,19)" style="font-family: Open Sans; font-size: 12px; font-weight: 400; fill: #333333; opacity: 1;">C</text><text text-anchor="middle" transform="translate(175,19)" style="font-family: Open Sans; font-size: 12px; font-weight: 400; fill: #333333; opacity: 1;">D</text><text text-anchor="middle" transform="translate(224,19)" style="font-family: Open Sans; font-size: 12px; font-weight: 400; fill: #333333; opacity: 1;">E</text><text text-anchor="middle" transform="translate(273,19)" style="font-family: Open Sans; font-size: 12px; font-weight: 400; fill: #333333; opacity: 1;">F</text><text text-anchor="middle" transform="translate(322,19)" style="font-family: Open Sans; font-size: 12px; font-weight: 400; fill: #333333; opacity: 1;">G</text><text text-anchor="middle" transform="translate(371,19)" style="font-family: Open Sans; font-size: 12px; font-weight: 400; fill: #333333; opacity: 1;">H</text></g></g><path class="foreground" d="" style="pointer-events: none; display: none; fill: none;"></path></g></g><g class="mark-group role-axis"><g transform="translate(0.5,0.5)"><path class="background" d="M0,0h0v0h0Z" style="pointer-events: none; fill: none;"></path><g><g class="mark-rule role-axis-grid" style="pointer-events: none;"><line transform="translate(0,200)" x2="400" y2="0" style="fill: none; stroke: #cecece; stroke-width: 1; opacity: 1;"></line><line transform="translate(0,180)" x2="400" y2="0" style="fill: none; stroke: #cecece; stroke-width: 1; opacity: 1;"></line><line transform="translate(0,160)" x2="400" y2="0" style="fill: none; stroke: #cecece; stroke-width: 1; opacity: 1;"></line><line transform="translate(0,140)" x2="400" y2="0" style="fill: none; stroke: #cecece; stroke-width: 1; opacity: 1;"></line><line transform="translate(0,120)" x2="400" y2="0" style="fill: none; stroke: #cecece; stroke-width: 1; opacity: 1;"></line><line transform="translate(0,100)" x2="400" y2="0" style="fill: none; stroke: #cecece; stroke-width: 1; opacity: 1;"></line><line transform="translate(0,80)" x2="400" y2="0" style="fill: none; stroke: #cecece; stroke-width: 1; opacity: 1;"></line><line transform="translate(0,60)" x2="400" y2="0" style="fill: none; stroke: #cecece; stroke-width: 1; opacity: 1;"></line><line transform="translate(0,40)" x2="400" y2="0" style="fill: none; stroke: #cecece; stroke-width: 1; opacity: 1;"></line><line transform="translate(0,20)" x2="400" y2="0" style="fill: none; stroke: #cecece; stroke-width: 1; opacity: 1;"></line><line transform="translate(0,0)" x2="400" y2="0" style="fill: none; stroke: #cecece; stroke-width: 1; opacity: 1;"></line></g><g class="mark-rule role-axis-tick" style="pointer-events: none;"><line transform="translate(0,200)" x2="-5" y2="0" style="fill: none; stroke: #cecece; stroke-width: 1; opacity: 1;"></line><line transform="translate(0,180)" x2="-5" y2="0" style="fill: none; stroke: #cecece; stroke-width: 1; opacity: 1;"></line><line transform="translate(0,160)" x2="-5" y2="0" style="fill: none; stroke: #cecece; stroke-width: 1; opacity: 1;"></line><line transform="translate(0,140)" x2="-5" y2="0" style="fill: none; stroke: #cecece; stroke-width: 1; opacity: 1;"></line><line transform="translate(0,120)" x2="-5" y2="0" style="fill: none; stroke: #cecece; stroke-width: 1; opacity: 1;"></line><line transform="translate(0,100)" x2="-5" y2="0" style="fill: none; stroke: #cecece; stroke-width: 1; opacity: 1;"></line><line transform="translate(0,80)" x2="-5" y2="0" style="fill: none; stroke: #cecece; stroke-width: 1; opacity: 1;"></line><line transform="translate(0,60)" x2="-5" y2="0" style="fill: none; stroke: #cecece; stroke-width: 1; opacity: 1;"></line><line transform="translate(0,40)" x2="-5" y2="0" style="fill: none; stroke: #cecece; stroke-width: 1; opacity: 1;"></line><line transform="translate(0,20)" x2="-5" y2="0" style="fill: none; stroke: #cecece; stroke-width: 1; opacity: 1;"></line><line transform="translate(0,0)" x2="-5" y2="0" style="fill: none; stroke: #cecece; stroke-width: 1; opacity: 1;"></line></g><g class="mark-text role-axis-label" style="pointer-events: none;"><text text-anchor="end" transform="translate(-10,204)" style="font-family: Open Sans; font-size: 12px; font-weight: 400; fill: #333333; opacity: 1;">0</text><text text-anchor="end" transform="translate(-10,184)" style="font-family: Open Sans; font-size: 12px; font-weight: 400; fill: #333333; opacity: 1;">10</text><text text-anchor="end" transform="translate(-10,164)" style="font-family: Open Sans; font-size: 12px; font-weight: 400; fill: #333333; opacity: 1;">20</text><text text-anchor="end" transform="translate(-10,144)" style="font-family: Open Sans; font-size: 12px; font-weight: 400; fill: #333333; opacity: 1;">30</text><text text-anchor="end" transform="translate(-10,124)" style="font-family: Open Sans; font-size: 12px; font-weight: 400; fill: #333333; opacity: 1;">40</text><text text-anchor="end" transform="translate(-10,104)" style="font-family: Open Sans; font-size: 12px; font-weight: 400; fill: #333333; opacity: 1;">50</text><text text-anchor="end" transform="translate(-10,84)" style="font-family: Open Sans; font-size: 12px; font-weight: 400; fill: #333333; opacity: 1;">60</text><text text-anchor="end" transform="translate(-10,64)" style="font-family: Open Sans; font-size: 12px; font-weight: 400; fill: #333333; opacity: 1;">70</text><text text-anchor="end" transform="translate(-10,43.99999999999999)" style="font-family: Open Sans; font-size: 12px; font-weight: 400; fill: #333333; opacity: 1;">80</text><text text-anchor="end" transform="translate(-10,23.999999999999996)" style="font-family: Open Sans; font-size: 12px; font-weight: 400; fill: #333333; opacity: 1;">90</text><text text-anchor="end" transform="translate(-10,4)" style="font-family: Open Sans; font-size: 12px; font-weight: 400; fill: #333333; opacity: 1;">100</text></g></g><path class="foreground" d="" style="pointer-events: none; display: none; fill: none;"></path></g></g><g class="mark-rect role-mark"><path d="M5,144h47v56h-47Z" style="fill: #41AB5D;"></path><path d="M54,89.99999999999999h47v110.00000000000001h-47Z" style="fill: #41AB5D;"></path><path d="M103,114.00000000000001h47v85.99999999999999h-47Z" style="fill: #41AB5D;"></path><path d="M152,17.999999999999993h47v182h-47Z" style="fill: #41AB5D;"></path><path d="M201,37.999999999999986h47v162h-47Z" style="fill: #41AB5D;"></path><path d="M250,94h47v106h-47Z" style="fill: #41AB5D;"></path><path d="M299,162h47v38h-47Z" style="fill: #41AB5D;"></path><path d="M348,26h47v174h-47Z" style="fill: #41AB5D;"></path></g><g class="mark-text role-mark"><text text-anchor="middle" transform="translate(0,-3)" style="font-family: Open Sans; font-size: 12px; font-weight: 400; fill: #333; fill-opacity: 1;"></text></g></g><path class="foreground" d="" style="display: none; fill: none;"></path></g></g></g></svg>