<svg class="marks" width="686" height="490" viewBox="0 0 686 490" version="1.1" xmlns="http://www.w3.org/2000/svg" xmlns:xlink="http://www.w3.org/1999/xlink"><g transform="translate(33,20)"><g class="mark-group role-frame root"><g transform="translate(0,0)"><path class="background" d="M0,0h620v400h-620Z" style="fill: none;"></path><g><g class="mark-text role-mark" style="pointer-events: none;"><text text-anchor="middle" transform="translate(310,393.5)" style="font-family: Open Sans; font-size: 12px; font-weight: 400; fill: #000;">0</text><text text-anchor="middle" transform="translate(310,372.5)" style="font-family: Open Sans; font-size: 12px; font-weight: 400; fill: #000;">5</text><text text-anchor="middle" transform="translate(310,351.5)" style="font-family: Open Sans; font-size: 12px; font-weight: 400; fill: #000;">10</text><text text-anchor="middle" transform="translate(310,330.5)" style="font-family: Open Sans; font-size: 12px; font-weight: 400; fill: #000;">15</text><text text-anchor="middle" transform="translate(310,309.5)" style="font-family: Open Sans; font-size: 12px; font-weight: 400; fill: #000;">20</text><text text-anchor="middle" transform="translate(310,288.5)" style="font-family: Open Sans; font-size: 12px; font-weight: 400; fill: #000;">25</text><text text-anchor="middle" transform="translate(310,267.5)" style="font-family: Open Sans; font-size: 12px; font-weight: 400; fill: #000;">30</text><text text-anchor="middle" transform="translate(310,246.5)" style="font-family: Open Sans; font-size: 12px; font-weight: 400; fill: #000;">35</text><text text-anchor="middle" transform="translate(310,225.5)" style="font-family: Open Sans; font-size: 12px; font-weight: 400; fill: #000;">40</text><text text-anchor="middle" transform="translate(310,204.5)" style="font-family: Open Sans; font-size: 12px; font-weight: 400; fill: #000;">45</text><text text-anchor="middle" transform="translate(310,183.5)" style="font-family: Open Sans; font-size: 12px; font-weight: 400; fill: #000;">50</text><text text-anchor="middle" transform="translate(310,162.5)" style="font-family: Open Sans; font-size: 12px; font-weight: 400; fill: #000;">55</text><text text-anchor="middle" transform="translate(310,141.5)" style="font-family: Open Sans; font-size: 12px; font-weight: 400; fill: #000;">60</text><text text-anchor="middle" transform="translate(310,120.5)" style="font-family: Open Sans; font-size: 12px; font-weight: 400; fill: #000;">65</text><text text-anchor="middle" transform="translate(310,99.5)" style="font-family: Open Sans; font-size: 12px; font-weight: 400; fill: #000;">70</text><text text-anchor="middle" transform="translate(310,78.5)" style="font-family: Open Sans; font-size: 12px; font-weight: 400; fill: #000;">75</text><text text-anchor="middle" transform="translate(310,57.5)" style="font-family: Open Sans; font-size: 12px; font-weight: 400; fill: #000;">80</text><text text-anchor="middle" transform="translate(310,36.5)" style="font-family: Open Sans; font-size: 12px; font-weight: 400; fill: #000;">85</text><text text-anchor="middle" transform="translate(310,15.5)" style="font-family: Open Sans; font-size: 12px; font-weight: 400; fill: #000;">90</text></g><g class="mark-group role-scope"><g transform="translate(0,0)"><path class="background" d="M0,0h0v400h0Z" style="fill: none;"></path><g><g class="mark-group role-axis"><g transform="translate(0.5,400.5)"><path class="background" d="M0,0h0v0h0Z" style="pointer-events: none; fill: none;"></path><g><g class="mark-rule role-axis-grid" style="pointer-events: none;"><line transform="translate(300,0)" x2="0" y2="-400" style="fill: none; stroke: #cecece; stroke-width: 1; opacity: 1;"></line><line transform="translate(275,0)" x2="0" y2="-400" style="fill: none; stroke: #cecece; stroke-width: 1; opacity: 1;"></line><line transform="translate(250,0)" x2="0" y2="-400" style="fill: none; stroke: #cecece; stroke-width: 1; opacity: 1;"></line><line transform="translate(225,0)" x2="0" y2="-400" style="fill: none; stroke: #cecece; stroke-width: 1; opacity: 1;"></line><line transform="translate(200,0)" x2="0" y2="-400" style="fill: none; stroke: #cecece; stroke-width: 1; opacity: 1;"></line><line transform="translate(175,0)" x2="0" y2="-400" style="fill: none; stroke: #cecece; stroke-width: 1; opacity: 1;"></line><line transform="translate(150,0)" x2="0" y2="-400" style="fill: none; stroke: #cecece; stroke-width: 1; opacity: 1;"></line><line transform="translate(125,0)" x2="0" y2="-400" style="fill: none; stroke: #cecece; stroke-width: 1; opacity: 1;"></line><line transform="translate(100,0)" x2="0" y2="-400" style="fill: none; stroke: #cecece; stroke-width: 1; opacity: 1;"></line><line transform="translate(75,0)" x2="0" y2="-400" style="fill: none; stroke: #cecece; stroke-width: 1; opacity: 1;"></line><line transform="translate(50,0)" x2="0" y2="-400" style="fill: none; stroke: #cecece; stroke-width: 1; opacity: 1;"></line><line transform="translate(25,0)" x2="0" y2="-400" style="fill: none; stroke: #cecece; stroke-width: 1; opacity: 1;"></line><line transform="translate(0,0)" x2="0" y2="-400" style="fill: none; stroke: #cecece; stroke-width: 1; opacity: 1;"></line></g><g class="mark-rule role-axis-tick" style="pointer-events: none;"><line transform="translate(300,0)" x2="0" y2="5" style="fill: none; stroke: #cecece; stroke-width: 1; opacity: 1;"></line><line transform="translate(275,0)" x2="0" y2="5" style="fill: none; stroke: #cecece; stroke-width: 1; opacity: 1;"></line><line transform="translate(250,0)" x2="0" y2="5" style="fill: none; stroke: #cecece; stroke-width: 1; opacity: 1;"></line><line transform="translate(225,0)" x2="0" y2="5" style="fill: none; stroke: #cecece; stroke-width: 1; opacity: 1;"></line><line transform="translate(200,0)" x2="0" y2="5" style="fill: none; stroke: #cecece; stroke-width: 1; opacity: 1;"></line><line transform="translate(175,0)" x2="0" y2="5" style="fill: none; stroke: #cecece; stroke-width: 1; opacity: 1;"></line><line transform="translate(150,0)" x2="0" y2="5" style="fill: none; stroke: #cecece; stroke-width: 1; opacity: 1;"></line><line transform="translate(125,0)" x2="0" y2="5" style="fill: none; stroke: #cecece; stroke-width: 1; opacity: 1;"></line><line transform="translate(100,0)" x2="0" y2="5" style="fill: none; stroke: #cecece; stroke-width: 1; opacity: 1;"></line><line transform="translate(75,0)" x2="0" y2="5" style="fill: none; stroke: #cecece; stroke-width: 1; opacity: 1;"></line><line transform="translate(50,0)" x2="0" y2="5" style="fill: none; stroke: #cecece; stroke-width: 1; opacity: 1;"></line><line transform="translate(25,0)" x2="0" y2="5" style="fill: none; stroke: #cecece; stroke-width: 1; opacity: 1;"></line><line transform="translate(0,0)" x2="0" y2="5" style="fill: none; stroke: #cecece; stroke-width: 1; opacity: 1;"></line></g><g class="mark-text role-axis-label" style="pointer-events: none;"><text text-anchor="middle" transform="translate(300,19)" style="font-family: Open Sans; font-size: 12px; font-weight: 400; fill: #333333; opacity: 1;">0M</text><text text-anchor="middle" transform="translate(275,19)" style="font-family: Open Sans; font-size: 12px; font-weight: 400; fill: #333333; opacity: 1;">1M</text><text text-anchor="middle" transform="translate(250,19)" style="font-family: Open Sans; font-size: 12px; font-weight: 400; fill: #333333; opacity: 1;">2M</text><text text-anchor="middle" transform="translate(225,19)" style="font-family: Open Sans; font-size: 12px; font-weight: 400; fill: #333333; opacity: 1;">3M</text><text text-anchor="middle" transform="translate(200.00000000000003,19)" style="font-family: Open Sans; font-size: 12px; font-weight: 400; fill: #333333; opacity: 1;">4M</text><text text-anchor="middle" transform="translate(174.99999999999997,19)" style="font-family: Open Sans; font-size: 12px; font-weight: 400; fill: #333333; opacity: 1;">5M</text><text text-anchor="middle" transform="translate(150,19)" style="font-family: Open Sans; font-size: 12px; font-weight: 400; fill: #333333; opacity: 1;">6M</text><text text-anchor="middle" transform="translate(124.99999999999999,19)" style="font-family: Open Sans; font-size: 12px; font-weight: 400; fill: #333333; opacity: 1;">7M</text><text text-anchor="middle" transform="translate(100.00000000000001,19)" style="font-family: Open Sans; font-size: 12px; font-weight: 400; fill: #333333; opacity: 1;">8M</text><text text-anchor="middle" transform="translate(75,19)" style="font-family: Open Sans; font-size: 12px; font-weight: 400; fill: #333333; opacity: 1;">9M</text><text text-anchor="middle" transform="translate(49.999999999999986,19)" style="font-family: Open Sans; font-size: 12px; font-weight: 400; fill: #333333; opacity: 1;">10M</text><text text-anchor="middle" transform="translate(25.00000000000001,19)" style="font-family: Open Sans; font-size: 12px; font-weight: 400; fill: #333333; opacity: 1;">11M</text><text text-anchor="middle" transform="translate(0,19)" style="font-family: Open Sans; font-size: 12px; font-weight: 400; fill: #333333; opacity: 1;">12M</text></g><g class="mark-text role-axis-title" style="pointer-events: none;"><text text-anchor="middle" transform="translate(150,47)" style="font-family: Cardo; font-size: 14px; font-weight: 700; fill: #333333; opacity: 1;">Females</text></g></g><path class="foreground" d="" style="pointer-events: none; display: none; fill: none;"></path></g></g><g class="mark-rect role-mark"><path d="M67.23214999999999,379h232.76785v20h-232.76785Z" style="fill: #004529;"></path><path d="M48.26090000000001,358h251.7391v20h-251.7391Z" style="fill: #004529;"></path><path d="M49.43689999999998,337h250.56310000000002v20h-250.56310000000002Z" style="fill: #004529;"></path><path d="M57.683275,316h242.316725v20h-242.316725Z" style="fill: #004529;"></path><path d="M66.8939,295h233.1061v20h-233.1061Z" style="fill: #004529;"></path><path d="M62.03732499999999,274h237.96267500000002v20h-237.96267500000002Z" style="fill: #004529;"></path><path d="M47.017600000000016,253h252.98239999999998v20h-252.98239999999998Z" style="fill: #004529;"></path><path d="M9.108824999999998,232h290.891175v20h-290.891175Z" style="fill: #004529;"></path><path d="M12.78555,211h287.21445v20h-287.21445Z" style="fill: #004529;"></path><path d="M43.46867499999999,190h256.53132500000004v20h-256.53132500000004Z" style="fill: #004529;"></path><path d="M77.22167499999999,169h222.778325v20h-222.778325Z" style="fill: #004529;"></path><path d="M126.9683,148h173.0317v20h-173.0317Z" style="fill: #004529;"></path><path d="M158.275975,127h141.724025v20h-141.724025Z" style="fill: #004529;"></path><path d="M179.8804,106h120.11959999999999v20h-120.11959999999999Z" style="fill: #004529;"></path><path d="M170.378625,85h129.621375v20h-129.621375Z" style="fill: #004529;"></path><path d="M191.10889999999998,64h108.89110000000002v20h-108.89110000000002Z" style="fill: #004529;"></path><path d="M219.45255,43h80.54745v20h-80.54745Z" style="fill: #004529;"></path><path d="M250.4711,22h49.52889999999999v20h-49.52889999999999Z" style="fill: #004529;"></path><path d="M273.385475,1h26.614525000000015v20h-26.614525000000015Z" style="fill: #004529;"></path></g></g><path class="foreground" d="" style="display: none; fill: none;"></path></g></g><g class="mark-group role-scope"><g transform="translate(320,0)"><path class="background" d="M0,0h0v400h0Z" style="fill: none;"></path><g><g class="mark-group role-axis"><g transform="translate(0.5,400.5)"><path class="background" d="M0,0h0v0h0Z" style="pointer-events: none; fill: none;"></path><g><g class="mark-rule role-axis-grid" style="pointer-events: none;"><line transform="translate(0,0)" x2="0" y2="-400" style="fill: none; stroke: #cecece; stroke-width: 1; opacity: 1;"></line><line transform="translate(25,0)" x2="0" y2="-400" style="fill: none; stroke: #cecece; stroke-width: 1; opacity: 1;"></line><line transform="translate(50,0)" x2="0" y2="-400" style="fill: none; stroke: #cecece; stroke-width: 1; opacity: 1;"></line><line transform="translate(75,0)" x2="0" y2="-400" style="fill: none; stroke: #cecece; stroke-width: 1; opacity: 1;"></line><line transform="translate(100,0)" x2="0" y2="-400" style="fill: none; stroke: #cecece; stroke-width: 1; opacity: 1;"></line><line transform="translate(125,0)" x2="0" y2="-400" style="fill: none; stroke: #cecece; stroke-width: 1; opacity: 1;"></line><line transform="translate(150,0)" x2="0" y2="-400" style="fill: none; stroke: #cecece; stroke-width: 1; opacity: 1;"></line><line transform="translate(175,0)" x2="0" y2="-400" style="fill: none; stroke: #cecece; stroke-width: 1; opacity: 1;"></line><line transform="translate(200,0)" x2="0" y2="-400" style="fill: none; stroke: #cecece; stroke-width: 1; opacity: 1;"></line><line transform="translate(225,0)" x2="0" y2="-400" style="fill: none; stroke: #cecece; stroke-width: 1; opacity: 1;"></line><line transform="translate(250,0)" x2="0" y2="-400" style="fill: none; stroke: #cecece; stroke-width: 1; opacity: 1;"></line><line transform="translate(275,0)" x2="0" y2="-400" style="fill: none; stroke: #cecece; stroke-width: 1; opacity: 1;"></line><line transform="translate(300,0)" x2="0" y2="-400" style="fill: none; stroke: #cecece; stroke-width: 1; opacity: 1;"></line></g><g class="mark-rule role-axis-tick" style="pointer-events: none;"><line transform="translate(0,0)" x2="0" y2="5" style="fill: none; stroke: #cecece; stroke-width: 1; opacity: 1;"></line><line transform="translate(25,0)" x2="0" y2="5" style="fill: none; stroke: #cecece; stroke-width: 1; opacity: 1;"></line><line transform="translate(50,0)" x2="0" y2="5" style="fill: none; stroke: #cecece; stroke-width: 1; opacity: 1;"></line><line transform="translate(75,0)" x2="0" y2="5" style="fill: none; stroke: #cecece; stroke-width: 1; opacity: 1;"></line><line transform="translate(100,0)" x2="0" y2="5" style="fill: none; stroke: #cecece; stroke-width: 1; opacity: 1;"></line><line transform="translate(125,0)" x2="0" y2="5" style="fill: none; stroke: #cecece; stroke-width: 1; opacity: 1;"></line><line transform="translate(150,0)" x2="0" y2="5" style="fill: none; stroke: #cecece; stroke-width: 1; opacity: 1;"></line><line transform="translate(175,0)" x2="0" y2="5" style="fill: none; stroke: #cecece; stroke-width: 1; opacity: 1;"></line><line transform="translate(200,0)" x2="0" y2="5" style="fill: none; stroke: #cecece; stroke-width: 1; opacity: 1;"></line><line transform="translate(225,0)" x2="0" y2="5" style="fill: none; stroke: #cecece; stroke-width: 1; opacity: 1;"></line><line transform="translate(250,0)" x2="0" y2="5" style="fill: none; stroke: #cecece; stroke-width: 1; opacity: 1;"></line><line transform="translate(275,0)" x2="0" y2="5" style="fill: none; stroke: #cecece; stroke-width: 1; opacity: 1;"></line><line transform="translate(300,0)" x2="0" y2="5" style="fill: none; stroke: #cecece; stroke-width: 1; opacity: 1;"></line></g><g class="mark-text role-axis-label" style="pointer-events: none;"><text text-anchor="middle" transform="translate(0,19)" style="font-family: Open Sans; font-size: 12px; font-weight: 400; fill: #333333; opacity: 1;">0M</text><text text-anchor="middle" transform="translate(25,19)" style="font-family: Open Sans; font-size: 12px; font-weight: 400; fill: #333333; opacity: 1;">1M</text><text text-anchor="middle" transform="translate(50,19)" style="font-family: Open Sans; font-size: 12px; font-weight: 400; fill: #333333; opacity: 1;">2M</text><text text-anchor="middle" transform="translate(75,19)" style="font-family: Open Sans; font-size: 12px; font-weight: 400; fill: #333333; opacity: 1;">3M</text><text text-anchor="middle" transform="translate(100,19)" style="font-family: Open Sans; font-size: 12px; font-weight: 400; fill: #333333; opacity: 1;">4M</text><text text-anchor="middle" transform="translate(125,19)" style="font-family: Open Sans; font-size: 12px; font-weight: 400; fill: #333333; opacity: 1;">5M</text><text text-anchor="middle" transform="translate(150,19)" style="font-family: Open Sans; font-size: 12px; font-weight: 400; fill: #333333; opacity: 1;">6M</text><text text-anchor="middle" transform="translate(175,19)" style="font-family: Open Sans; font-size: 12px; font-weight: 400; fill: #333333; opacity: 1;">7M</text><text text-anchor="middle" transform="translate(200,19)" style="font-family: Open Sans; font-size: 12px; font-weight: 400; fill: #333333; opacity: 1;">8M</text><text text-anchor="middle" transform="translate(225,19)" style="font-family: Open Sans; font-size: 12px; font-weight: 400; fill: #333333; opacity: 1;">9M</text><text text-anchor="middle" transform="translate(250,19)" style="font-family: Open Sans; font-size: 12px; font-weight: 400; fill: #333333; opacity: 1;">10M</text><text text-anchor="middle" transform="translate(275,19)" style="font-family: Open Sans; font-size: 12px; font-weight: 400; fill: #333333; opacity: 1;">11M</text><text text-anchor="middle" transform="translate(300,19)" style="font-family: Open Sans; font-size: 12px; font-weight: 400; fill: #333333; opacity: 1;">12M</text></g><g class="mark-text role-axis-title" style="pointer-events: none;"><text text-anchor="middle" transform="translate(150,47)" style="font-family: Cardo; font-size: 14px; font-weight: 700; fill: #333333; opacity: 1;">Males</text></g></g><path class="foreground" d="" style="pointer-events: none; display: none; fill: none;"></path></g></g><g class="mark-rect role-mark"><path d="M0,379h243.3845v20h-243.3845Z" style="fill: #41AB5D;"></path><path d="M0,358h263.80365v20h-263.80365Z" style="fill: #41AB5D;"></path><path d="M0,337h264.080825v20h-264.080825Z" style="fill: #41AB5D;"></path><path d="M0,316h255.935475v20h-255.935475Z" style="fill: #41AB5D;"></path><path d="M0,295h243.282875v20h-243.282875Z" style="fill: #41AB5D;"></path><path d="M0,274h241.487325v20h-241.487325Z" style="fill: #41AB5D;"></path><path d="M0,253h255.146975v20h-255.146975Z" style="fill: #41AB5D;"></path><path d="M0,232h286.87955v20h-286.87955Z" style="fill: #41AB5D;"></path><path d="M0,211h283.0063v20h-283.0063Z" style="fill: #41AB5D;"></path><path d="M0,190h248.12515000000002v20h-248.12515000000002Z" style="fill: #41AB5D;"></path><path d="M0,169h212.69835v20h-212.69835Z" style="fill: #41AB5D;"></path><path d="M0,148h161.47705v20h-161.47705Z" style="fill: #41AB5D;"></path><path d="M0,127h128.084975v20h-128.084975Z" style="fill: #41AB5D;"></path><path d="M0,106h111.340575v20h-111.340575Z" style="fill: #41AB5D;"></path><path d="M0,85h94.80362500000001v20h-94.80362500000001Z" style="fill: #41AB5D;"></path><path d="M0,64h72.816375v20h-72.816375Z" style="fill: #41AB5D;"></path><path d="M0,43h47.56595v20h-47.56595Z" style="fill: #41AB5D;"></path><path d="M0,22h24.258925v20h-24.258925Z" style="fill: #41AB5D;"></path><path d="M0,1h8.407575000000001v20h-8.407575000000001Z" style="fill: #41AB5D;"></path></g></g><path class="foreground" d="" style="display: none; fill: none;"></path></g></g></g><path class="foreground" d="" style="display: none; fill: none;"></path></g></g></g></svg>