<svg class="marks" width="240" height="240" viewBox="0 0 240 240" version="1.1" xmlns="http://www.w3.org/2000/svg" xmlns:xlink="http://www.w3.org/1999/xlink"><g transform="translate(20,20)"><g class="mark-group role-frame root"><g transform="translate(0,0)"><path class="background" d="M0,0h200v200h-200Z" style="fill: none;"></path><g><g class="mark-arc role-mark"><path transform="translate(100,100)" d="M6.123233995736766e-15,-100A100,100,0,0,1,61.477863357768115,-78.86997094562412L0,0Z" style="fill: #ffc6c4;"></path><path transform="translate(100,100)" d="M61.477863357768115,-78.86997094562412A100,100,0,0,1,99.64347976829289,8.436642677380803L0,0Z" style="fill: #f4a3a8;"></path><path transform="translate(100,100)" d="M99.64347976829289,8.436642677380803A100,100,0,0,1,-16.813128678718204,98.57646120668394L0,0Z" style="fill: #e38191;"></path><path transform="translate(100,100)" d="M-16.813128678718204,98.57646120668394A100,100,0,0,1,-61.746243271190636,78.66003713382638L0,0Z" style="fill: #cc607d;"></path><path transform="translate(100,100)" d="M-61.746243271190636,78.66003713382638A100,100,0,0,1,-96.80655258926953,-25.069730269410446L0,0Z" style="fill: #ad466c;"></path><path transform="translate(100,100)" d="M-96.80655258926953,-25.069730269410446A100,100,0,0,1,0.6814640074771126,-99.99767800707431L0,0Z" style="fill: #8b3058;"></path></g></g><path class="foreground" d="" style="display: none; fill: none;"></path></g></g></g></svg>