<svg class="marks" width="711" height="396" xmlns="http://www.w3.org/2000/svg"><g class="mark-group role-frame root"><path class="background" d="M73 26h500v300H73z" fill="none"/><g class="mark-group role-axis"><path class="background" d="M73.5 326.5z" pointer-events="none" fill="none"/><g class="mark-rule role-axis-grid" pointer-events="none" fill="none" stroke="#cecece"><path d="M73.5 326.5v-300M177.5 326.5v-300M281.5 326.5v-300M386.5 326.5v-300M490.5 326.5v-300"/></g><g class="mark-rule role-axis-tick" pointer-events="none" fill="none" stroke="#cecece"><path d="M73.5 326.5v5M177.5 326.5v5M281.5 326.5v5M386.5 326.5v5M490.5 326.5v5"/></g><g class="mark-text role-axis-label" pointer-events="none" text-anchor="middle" font-family="Open Sans" font-size="12" font-weight="400" fill="#333"><text transform="translate(73.5 345.5)">0</text><text transform="translate(177.5 345.5)">50</text><text transform="translate(281.5 345.5)">100</text><text transform="translate(386.5 345.5)">150</text><text transform="translate(490.5 345.5)">200</text></g><text text-anchor="middle" transform="translate(323.5 373.5)" font-family="Open Sans" font-size="14" font-weight="700" fill="#333" pointer-events="none">Horsepower</text></g><g class="mark-group role-axis"><path class="background" d="M73.5 26.5z" pointer-events="none" fill="none"/><g class="mark-rule role-axis-grid" pointer-events="none" fill="none" stroke="#cecece"><path d="M73.5 326.5h500M73.5 296.5h500M73.5 266.5h500M73.5 236.5h500M73.5 206.5h500M73.5 176.5h500M73.5 146.5h500M73.5 116.5h500M73.5 86.5h500M73.5 56.5h500M73.5 26.5h500"/></g><g class="mark-rule role-axis-tick" pointer-events="none" fill="none" stroke="#cecece"><path d="M73.5 326.5h-5M73.5 296.5h-5M73.5 266.5h-5M73.5 236.5h-5M73.5 206.5h-5M73.5 176.5h-5M73.5 146.5h-5M73.5 116.5h-5M73.5 86.5h-5M73.5 56.5h-5M73.5 26.5h-5"/></g><g class="mark-text role-axis-label" pointer-events="none" text-anchor="end" font-family="Open Sans" font-size="12" font-weight="400" fill="#333"><text transform="translate(63.5 330.5)">0</text><text transform="translate(63.5 300.5)">5</text><text transform="translate(63.5 270.5)">10</text><text transform="translate(63.5 240.5)">15</text><text transform="translate(63.5 210.5)">20</text><text transform="translate(63.5 180.5)">25</text><text transform="translate(63.5 150.5)">30</text><text transform="translate(63.5 120.5)">35</text><text transform="translate(63.5 90.5)">40</text><text transform="translate(63.5 60.5)">45</text><text transform="translate(63.5 30.5)">50</text></g><text text-anchor="middle" transform="rotate(-90 104.133 72.367)" font-family="Open Sans" font-size="14" font-weight="700" fill="#333" pointer-events="none">Miles_per_Gallon</text></g><g class="mark-symbol role-mark marks" fill="#41ab5d"><path d="M350.652 218a6.652 6.652 0 1 1-13.304 0 6.652 6.652 0 1 1 13.304 0M423.52 236a6.52 6.52 0 1 1-13.04 0 6.52 6.52 0 1 1 13.04 0M392.364 218a6.364 6.364 0 1 1-12.728 0 6.364 6.364 0 1 1 12.728 0" opacity=".5"/><path d="M392.652 230a6.652 6.652 0 1 1-13.304 0 6.652 6.652 0 1 1 13.304 0M371.225 224a6.225 6.225 0 1 1-12.45 0 6.225 6.225 0 1 1 12.45 0M492.083 236a6.083 6.083 0 1 1-12.166 0 6.083 6.083 0 1 1 12.166 0M536.788 242a5.788 5.788 0 1 1-11.576 0 5.788 5.788 0 1 1 11.576 0" opacity=".5"/><path d="M526.612 242a5.612 5.612 0 1 1-11.224 0 5.612 5.612 0 1 1 11.224 0M548.083 242a6.083 6.083 0 1 1-12.166 0 6.083 6.083 0 1 1 12.166 0M474.612 236a5.612 5.612 0 1 1-11.224 0 5.612 5.612 0 1 1 11.224 0M433.083 236a6.083 6.083 0 1 1-12.166 0 6.083 6.083 0 1 1 12.166 0M411.454 242a5.454 5.454 0 1 1-10.908 0 5.454 5.454 0 1 1 10.908 0M391.937 236a5.937 5.937 0 1 1-11.874 0 5.937 5.937 0 1 1 11.874 0" opacity=".5"/><path d="M548.083 242a6.083 6.083 0 1 1-12.166 0 6.083 6.083 0 1 1 12.166 0M278.416 182a7.416 7.416 0 1 1-14.832 0 7.416 7.416 0 1 1 14.832 0" opacity=".5"/><path d="M278.533 194a7.533 7.533 0 1 1-15.066 0 7.533 7.533 0 1 1 15.066 0M282.533 218a7.533 7.533 0 1 1-15.066 0 7.533 7.533 0 1 1 15.066 0M257.649 200a7.649 7.649 0 1 1-15.298 0 7.649 7.649 0 1 1 15.298 0M263.297 164a7.297 7.297 0 1 1-14.594 0 7.297 7.297 0 1 1 14.594 0M177.646 170a8.646 8.646 0 1 1-17.292 0 8.646 8.646 0 1 1 17.292 0" opacity=".5"/><path d="M262 176a8 8 0 1 1-16 0 8 8 0 1 1 16 0" opacity=".5"/><path d="M268.297 182a7.297 7.297 0 1 1-14.594 0 7.297 7.297 0 1 1 14.594 0" opacity=".5"/><path d="M279 176a8 8 0 1 1-16 0 8 8 0 1 1 16 0M314.782 170a6.782 6.782 0 1 1-13.564 0 6.782 6.782 0 1 1 13.564 0M268.416 200a7.416 7.416 0 1 1-14.832 0 7.416 7.416 0 1 1 14.832 0M528.176 266a7.176 7.176 0 1 1-14.352 0 7.176 7.176 0 1 1 14.352 0M497.416 266a7.416 7.416 0 1 1-14.832 0 7.416 7.416 0 1 1 14.832 0" opacity=".5"/><path d="M518.036 260a7.036 7.036 0 1 1-14.072 0 7.036 7.036 0 1 1 14.072 0M483.216 272a8.216 8.216 0 1 1-16.432 0 8.216 8.216 0 1 1 16.432 0M263.297 164a7.297 7.297 0 1 1-14.594 0 7.297 7.297 0 1 1 14.594 0" opacity=".5"/><path d="M268.533 158a7.533 7.533 0 1 1-15.066 0 7.533 7.533 0 1 1 15.066 0M278.176 176a7.176 7.176 0 1 1-14.352 0 7.176 7.176 0 1 1 14.352 0M287.91 212a6.91 6.91 0 1 1-13.82 0 6.91 6.91 0 1 1 13.82 0M299.533 230a7.533 7.533 0 1 1-15.066 0 7.533 7.533 0 1 1 15.066 0" opacity=".5"/><path d="M288.533 224a7.533 7.533 0 1 1-15.066 0 7.533 7.533 0 1 1 15.066 0M263.533 212a7.533 7.533 0 1 1-15.066 0 7.533 7.533 0 1 1 15.066 0" opacity=".5"/><path d="M288.533 218a7.533 7.533 0 1 1-15.066 0 7.533 7.533 0 1 1 15.066 0M423.652 242a6.652 6.652 0 1 1-13.304 0 6.652 6.652 0 1 1 13.304 0M444.52 242a6.52 6.52 0 1 1-13.04 0 6.52 6.52 0 1 1 13.04 0M399.036 242a7.036 7.036 0 1 1-14.072 0 7.036 7.036 0 1 1 14.072 0" opacity=".5"/><path d="M392.91 242a6.91 6.91 0 1 1-13.82 0 6.91 6.91 0 1 1 13.82 0M454.52 254a6.52 6.52 0 1 1-13.04 0 6.52 6.52 0 1 1 13.04 0M433.652 248a6.652 6.652 0 1 1-13.304 0 6.652 6.652 0 1 1 13.304 0" opacity=".5"/><path d="M444.652 248a6.652 6.652 0 1 1-13.304 0 6.652 6.652 0 1 1 13.304 0M309.036 218a7.036 7.036 0 1 1-14.072 0 7.036 7.036 0 1 1 14.072 0M231.337 194a8.337 8.337 0 1 1-16.674 0 8.337 8.337 0 1 1 16.674 0M288.416 212a7.416 7.416 0 1 1-14.832 0 7.416 7.416 0 1 1 14.832 0M263.297 218a7.297 7.297 0 1 1-14.594 0 7.297 7.297 0 1 1 14.594 0M259.176 188a7.176 7.176 0 1 1-14.352 0 7.176 7.176 0 1 1 14.352 0M268.176 158a7.176 7.176 0 1 1-14.352 0 7.176 7.176 0 1 1 14.352 0M227.441 146a8.441 8.441 0 1 1-16.882 0 8.441 8.441 0 1 1 16.882 0" opacity=".5"/><path d="M238.297 146a7.297 7.297 0 1 1-14.594 0 7.297 7.297 0 1 1 14.594 0M216.337 140a8.337 8.337 0 1 1-16.674 0 8.337 8.337 0 1 1 16.674 0M225.109 116a8.109 8.109 0 1 1-16.218 0 8.109 8.109 0 1 1 16.218 0M206.337 164a8.337 8.337 0 1 1-16.674 0 8.337 8.337 0 1 1 16.674 0M227.646 170a8.646 8.646 0 1 1-17.292 0 8.646 8.646 0 1 1 17.292 0M278.533 182a7.533 7.533 0 1 1-15.066 0 7.533 7.533 0 1 1 15.066 0M247.89 176a7.89 7.89 0 1 1-15.78 0 7.89 7.89 0 1 1 15.78 0M195.247 188a9.247 9.247 0 1 1-18.494 0 9.247 9.247 0 1 1 18.494 0M269.441 206a8.441 8.441 0 1 1-16.882 0 8.441 8.441 0 1 1 16.882 0" opacity=".5"/><path d="M259.778 200a7.778 7.778 0 1 1-15.556 0 7.778 7.778 0 1 1 15.556 0M423.652 248a6.652 6.652 0 1 1-13.304 0 6.652 6.652 0 1 1 13.304 0M444.652 242a6.652 6.652 0 1 1-13.304 0 6.652 6.652 0 1 1 13.304 0M393.036 236a7.036 7.036 0 1 1-14.072 0 7.036 7.036 0 1 1 14.072 0" opacity=".5"/><path d="M398.91 242a6.91 6.91 0 1 1-13.82 0 6.91 6.91 0 1 1 13.82 0M392.52 224a6.52 6.52 0 1 1-13.04 0 6.52 6.52 0 1 1 13.04 0M512.364 260a6.364 6.364 0 1 1-12.728 0 6.364 6.364 0 1 1 12.728 0" opacity=".5"/><path d="M403.036 248a7.036 7.036 0 1 1-14.072 0 7.036 7.036 0 1 1 14.072 0" opacity=".5"/><path d="M413.036 254a7.036 7.036 0 1 1-14.072 0 7.036 7.036 0 1 1 14.072 0M475.782 248a6.782 6.782 0 1 1-13.564 0 6.782 6.782 0 1 1 13.564 0M282.036 212a7.036 7.036 0 1 1-14.072 0 7.036 7.036 0 1 1 14.072 0M392.782 236a6.782 6.782 0 1 1-13.564 0 6.782 6.782 0 1 1 13.564 0M351.176 248a7.176 7.176 0 1 1-14.352 0 7.176 7.176 0 1 1 14.352 0M372.649 248a7.649 7.649 0 1 1-15.298 0 7.649 7.649 0 1 1 15.298 0" opacity=".5"/><path d="M393.176 242a7.176 7.176 0 1 1-14.352 0 7.176 7.176 0 1 1 14.352 0M313.297 218a7.297 7.297 0 1 1-14.594 0 7.297 7.297 0 1 1 14.594 0M239.109 194a8.109 8.109 0 1 1-16.218 0 8.109 8.109 0 1 1 16.218 0M262.441 200a8.441 8.441 0 1 1-16.882 0 8.441 8.441 0 1 1 16.882 0M225.109 170a8.109 8.109 0 1 1-16.218 0 8.109 8.109 0 1 1 16.218 0" opacity=".5"/><path d="M259.649 194a7.649 7.649 0 1 1-15.298 0 7.649 7.649 0 1 1 15.298 0M272.89 158a7.89 7.89 0 1 1-15.78 0 7.89 7.89 0 1 1 15.78 0M282.297 188a7.297 7.297 0 1 1-14.594 0 7.297 7.297 0 1 1 14.594 0M247.416 158a7.416 7.416 0 1 1-14.832 0 7.416 7.416 0 1 1 14.832 0" opacity=".5"/><path d="M263.778 164a7.778 7.778 0 1 1-15.556 0 7.778 7.778 0 1 1 15.556 0M444.91 248a6.91 6.91 0 1 1-13.82 0 6.91 6.91 0 1 1 13.82 0M392.52 242a6.52 6.52 0 1 1-13.04 0 6.52 6.52 0 1 1 13.04 0" opacity=".5"/><path d="M381.91 248a6.91 6.91 0 1 1-13.82 0 6.91 6.91 0 1 1 13.82 0M365.297 242a7.297 7.297 0 1 1-14.594 0 7.297 7.297 0 1 1 14.594 0M392.782 236a6.782 6.782 0 1 1-13.564 0 6.782 6.782 0 1 1 13.564 0M492.52 254a6.52 6.52 0 1 1-13.04 0 6.52 6.52 0 1 1 13.04 0" opacity=".5"/><path d="M392.652 248a6.652 6.652 0 1 1-13.304 0 6.652 6.652 0 1 1 13.304 0M408.91 248a6.91 6.91 0 1 1-13.82 0 6.91 6.91 0 1 1 13.82 0" opacity=".5"/><path d="M393.297 242a7.297 7.297 0 1 1-14.594 0 7.297 7.297 0 1 1 14.594 0M527.364 248a6.364 6.364 0 1 1-12.728 0 6.364 6.364 0 1 1 12.728 0M548.364 254a6.364 6.364 0 1 1-12.728 0 6.364 6.364 0 1 1 12.728 0M444.364 248a6.364 6.364 0 1 1-12.728 0 6.364 6.364 0 1 1 12.728 0M299.778 218a7.778 7.778 0 1 1-15.556 0 7.778 7.778 0 1 1 15.556 0M289.109 230a8.109 8.109 0 1 1-16.218 0 8.109 8.109 0 1 1 16.218 0" opacity=".5"/><path d="M288.649 218a7.649 7.649 0 1 1-15.298 0 7.649 7.649 0 1 1 15.298 0M263.778 218a7.778 7.778 0 1 1-15.556 0 7.778 7.778 0 1 1 15.556 0M278.649 188a7.649 7.649 0 1 1-15.298 0 7.649 7.649 0 1 1 15.298 0M177.746 170a8.746 8.746 0 1 1-17.492 0 8.746 8.746 0 1 1 17.492 0M393.176 260a7.176 7.176 0 1 1-14.352 0 7.176 7.176 0 1 1 14.352 0M427.782 254a6.782 6.782 0 1 1-13.564 0 6.782 6.782 0 1 1 13.564 0" opacity=".5"/><path d="M433.91 248a6.91 6.91 0 1 1-13.82 0 6.91 6.91 0 1 1 13.82 0M454.782 254a6.782 6.782 0 1 1-13.564 0 6.782 6.782 0 1 1 13.564 0M288.416 218a7.416 7.416 0 1 1-14.832 0 7.416 7.416 0 1 1 14.832 0M264.337 206a8.337 8.337 0 1 1-16.674 0 8.337 8.337 0 1 1 16.674 0M231.441 200a8.441 8.441 0 1 1-16.882 0 8.441 8.441 0 1 1 16.882 0M276.778 194a7.778 7.778 0 1 1-15.556 0 7.778 7.778 0 1 1 15.556 0" opacity=".5"/><path d="M268.036 218a7.036 7.036 0 1 1-14.072 0 7.036 7.036 0 1 1 14.072 0" opacity=".5"/><path d="M258.216 212a8.216 8.216 0 1 1-16.432 0 8.216 8.216 0 1 1 16.432 0M303.176 200a7.176 7.176 0 1 1-14.352 0 7.176 7.176 0 1 1 14.352 0M268.533 170a7.533 7.533 0 1 1-15.066 0 7.533 7.533 0 1 1 15.066 0M381.91 236a6.91 6.91 0 1 1-13.82 0 6.91 6.91 0 1 1 13.82 0M557.937 230a5.937 5.937 0 1 1-11.874 0 5.937 5.937 0 1 1 11.874 0M183.441 152a8.441 8.441 0 1 1-16.882 0 8.441 8.441 0 1 1 16.882 0M236.533 182a7.533 7.533 0 1 1-15.066 0 7.533 7.533 0 1 1 15.066 0" opacity=".5"/><path d="M270.176 206a7.176 7.176 0 1 1-14.352 0 7.176 7.176 0 1 1 14.352 0M313.533 212a7.533 7.533 0 1 1-15.066 0 7.533 7.533 0 1 1 15.066 0M392.364 236a6.364 6.364 0 1 1-12.728 0 6.364 6.364 0 1 1 12.728 0M309.176 182a7.176 7.176 0 1 1-14.352 0 7.176 7.176 0 1 1 14.352 0M334.036 206a7.036 7.036 0 1 1-14.072 0 7.036 7.036 0 1 1 14.072 0M454.364 260a6.364 6.364 0 1 1-12.728 0 6.364 6.364 0 1 1 12.728 0" opacity=".5"/><path d="M278.778 206a7.778 7.778 0 1 1-15.556 0 7.778 7.778 0 1 1 15.556 0" opacity=".5"/><path d="M288.649 212a7.649 7.649 0 1 1-15.298 0 7.649 7.649 0 1 1 15.298 0M288.89 236a7.89 7.89 0 1 1-15.78 0 7.89 7.89 0 1 1 15.78 0M221.337 140a8.337 8.337 0 1 1-16.674 0 8.337 8.337 0 1 1 16.674 0M247.778 170a7.778 7.778 0 1 1-15.556 0 7.778 7.778 0 1 1 15.556 0" opacity=".5"/><path d="M216.746 134a8.746 8.746 0 1 1-17.492 0 8.746 8.746 0 1 1 17.492 0M236.89 176a7.89 7.89 0 1 1-15.78 0 7.89 7.89 0 1 1 15.78 0M288.89 230a7.89 7.89 0 1 1-15.78 0 7.89 7.89 0 1 1 15.78 0M310.109 230a8.109 8.109 0 1 1-16.218 0 8.109 8.109 0 1 1 16.218 0" opacity=".5"/><path d="M299.778 218a7.778 7.778 0 1 1-15.556 0 7.778 7.778 0 1 1 15.556 0M372.176 230a7.176 7.176 0 1 1-14.352 0 7.176 7.176 0 1 1 14.352 0M393.297 248a7.297 7.297 0 1 1-14.594 0 7.297 7.297 0 1 1 14.594 0" opacity=".5"/><path d="M393.036 242a7.036 7.036 0 1 1-14.072 0 7.036 7.036 0 1 1 14.072 0M372.649 242a7.649 7.649 0 1 1-15.298 0 7.649 7.649 0 1 1 15.298 0" opacity=".5"/><path d="M393.533 242a7.533 7.533 0 1 1-15.066 0 7.533 7.533 0 1 1 15.066 0M253.778 152a7.778 7.778 0 1 1-15.556 0 7.778 7.778 0 1 1 15.556 0M220.533 170a7.533 7.533 0 1 1-15.066 0 7.533 7.533 0 1 1 15.066 0M243.297 170a7.297 7.297 0 1 1-14.594 0 7.297 7.297 0 1 1 14.594 0M188.778 140a7.778 7.778 0 1 1-15.556 0 7.778 7.778 0 1 1 15.556 0M208.337 134a8.337 8.337 0 1 1-16.674 0 8.337 8.337 0 1 1 16.674 0" opacity=".5"/><path d="M236.297 158a7.297 7.297 0 1 1-14.594 0 7.297 7.297 0 1 1 14.594 0M236.533 182a7.533 7.533 0 1 1-15.066 0 7.533 7.533 0 1 1 15.066 0" opacity=".5"/><path d="M236.176 170a7.176 7.176 0 1 1-14.352 0 7.176 7.176 0 1 1 14.352 0M282.416 182a7.416 7.416 0 1 1-14.832 0 7.416 7.416 0 1 1 14.832 0" opacity=".5"/><path d="M274.533 170a7.533 7.533 0 1 1-15.066 0 7.533 7.533 0 1 1 15.066 0M220.649 140a7.649 7.649 0 1 1-15.298 0 7.649 7.649 0 1 1 15.298 0M278.649 212a7.649 7.649 0 1 1-15.298 0 7.649 7.649 0 1 1 15.298 0M299.649 218a7.649 7.649 0 1 1-15.298 0 7.649 7.649 0 1 1 15.298 0M231.746 236a8.746 8.746 0 1 1-17.492 0 8.746 8.746 0 1 1 17.492 0" opacity=".5"/><path d="M231.441 236a8.441 8.441 0 1 1-16.882 0 8.441 8.441 0 1 1 16.882 0M433.52 230a6.52 6.52 0 1 1-13.04 0 6.52 6.52 0 1 1 13.04 0M382.176 236a7.176 7.176 0 1 1-14.352 0 7.176 7.176 0 1 1 14.352 0" opacity=".5"/><path d="M393.297 230a7.297 7.297 0 1 1-14.594 0 7.297 7.297 0 1 1 14.594 0" opacity=".5"/><path d="M388.036 242a7.036 7.036 0 1 1-14.072 0 7.036 7.036 0 1 1 14.072 0M310.746 224a8.746 8.746 0 1 1-17.492 0 8.746 8.746 0 1 1 17.492 0" opacity=".5"/><path d="M300.216 230a8.216 8.216 0 1 1-16.432 0 8.216 8.216 0 1 1 16.432 0" opacity=".5"/><path d="M310.337 236a8.337 8.337 0 1 1-16.674 0 8.337 8.337 0 1 1 16.674 0M279.337 218a8.337 8.337 0 1 1-16.674 0 8.337 8.337 0 1 1 16.674 0M309.416 200a7.416 7.416 0 1 1-14.832 0 7.416 7.416 0 1 1 14.832 0" opacity=".5"/><path d="M309.036 206a7.036 7.036 0 1 1-14.072 0 7.036 7.036 0 1 1 14.072 0M348.652 248a6.652 6.652 0 1 1-13.304 0 6.652 6.652 0 1 1 13.304 0M236.649 152a7.649 7.649 0 1 1-15.298 0 7.649 7.649 0 1 1 15.298 0M253.89 188a7.89 7.89 0 1 1-15.78 0 7.89 7.89 0 1 1 15.78 0M288.649 206a7.649 7.649 0 1 1-15.298 0 7.649 7.649 0 1 1 15.298 0" opacity=".5"/><path d="M244.216 188a8.216 8.216 0 1 1-16.432 0 8.216 8.216 0 1 1 16.432 0M280.036 182a7.036 7.036 0 1 1-14.072 0 7.036 7.036 0 1 1 14.072 0M228.778 176a7.778 7.778 0 1 1-15.556 0 7.778 7.778 0 1 1 15.556 0" opacity=".5"/><path d="M282.89 182a7.89 7.89 0 1 1-15.78 0 7.89 7.89 0 1 1 15.78 0M282.297 218a7.297 7.297 0 1 1-14.594 0 7.297 7.297 0 1 1 14.594 0M226.176 152a7.176 7.176 0 1 1-14.352 0 7.176 7.176 0 1 1 14.352 0" opacity=".5"/><path d="M268.89 212a7.89 7.89 0 1 1-15.78 0 7.89 7.89 0 1 1 15.78 0M278.416 188a7.416 7.416 0 1 1-14.832 0 7.416 7.416 0 1 1 14.832 0" opacity=".5"/><path d="M263.89 188a7.89 7.89 0 1 1-15.78 0 7.89 7.89 0 1 1 15.78 0M284.297 194a7.297 7.297 0 1 1-14.594 0 7.297 7.297 0 1 1 14.594 0M320.036 176a7.036 7.036 0 1 1-14.072 0 7.036 7.036 0 1 1 14.072 0M191 128a8 8 0 1 1-16 0 8 8 0 1 1 16 0M259.533 158a7.533 7.533 0 1 1-15.066 0 7.533 7.533 0 1 1 15.066 0M249.858 176a7.858 7.858 0 1 1-15.716 0 7.858 7.858 0 1 1 15.716 0" opacity=".5"/><path d="M272.382 176a7.382 7.382 0 1 1-14.764 0 7.382 7.382 0 1 1 14.764 0M246.047 170a8.047 8.047 0 1 1-16.094 0 8.047 8.047 0 1 1 16.094 0" opacity=".5"/><path d="M253.483 164a7.483 7.483 0 1 1-14.966 0 7.483 7.483 0 1 1 14.966 0M371.91 221a6.91 6.91 0 1 1-13.82 0 6.91 6.91 0 1 1 13.82 0M392.91 230a6.91 6.91 0 1 1-13.82 0 6.91 6.91 0 1 1 13.82 0M330.141 233a7.141 7.141 0 1 1-14.282 0 7.141 7.141 0 1 1 14.282 0" opacity=".5"/><path d="M396.856 239a6.856 6.856 0 1 1-13.712 0 6.856 6.856 0 1 1 13.712 0M288.517 194a7.517 7.517 0 1 1-15.034 0 7.517 7.517 0 1 1 15.034 0" opacity=".5"/><path d="M299.297 194a7.297 7.297 0 1 1-14.594 0 7.297 7.297 0 1 1 14.594 0M250.016 182a8.016 8.016 0 1 1-16.032 0 8.016 8.016 0 1 1 16.032 0M269.016 191a8.016 8.016 0 1 1-16.032 0 8.016 8.016 0 1 1 16.032 0M190 152a9 9 0 1 1-18 0 9 9 0 1 1 18 0M206.972 179a8.972 8.972 0 1 1-17.944 0 8.972 8.972 0 1 1 17.944 0M226.211 152a7.211 7.211 0 1 1-14.422 0 7.211 7.211 0 1 1 14.422 0M190.969 128a7.969 7.969 0 1 1-15.938 0 7.969 7.969 0 1 1 15.938 0M289.047 206a8.047 8.047 0 1 1-16.094 0 8.047 8.047 0 1 1 16.094 0M244.746 218a8.746 8.746 0 1 1-17.492 0 8.746 8.746 0 1 1 17.492 0M309.697 215a7.697 7.697 0 1 1-15.394 0 7.697 7.697 0 1 1 15.394 0M279.062 221a8.062 8.062 0 1 1-16.124 0 8.062 8.062 0 1 1 16.124 0" opacity=".5"/><path d="M227.708 149a6.708 6.708 0 1 1-13.416 0 6.708 6.708 0 1 1 13.416 0" opacity=".5"/><path d="M226.89 134a7.89 7.89 0 1 1-15.78 0 7.89 7.89 0 1 1 15.78 0M236.746 158a7.746 7.746 0 1 1-15.492 0 7.746 7.746 0 1 1 15.492 0" opacity=".5"/><path d="M230.071 167a7.071 7.071 0 1 1-14.142 0 7.071 7.071 0 1 1 14.142 0M293.583 206a7.583 7.583 0 1 1-15.166 0 7.583 7.583 0 1 1 15.166 0M392.964 248a6.964 6.964 0 1 1-13.928 0 6.964 6.964 0 1 1 13.928 0M264.93 212a8.93 8.93 0 1 1-17.86 0 8.93 8.93 0 1 1 17.86 0" opacity=".5"/><path d="M305.533 212a7.533 7.533 0 1 1-15.066 0 7.533 7.533 0 1 1 15.066 0M330.81 227a7.81 7.81 0 1 1-15.62 0 7.81 7.81 0 1 1 15.62 0M454.67 227a6.67 6.67 0 1 1-13.34 0 6.67 6.67 0 1 1 13.34 0M381.652 248a6.652 6.652 0 1 1-13.304 0 6.652 6.652 0 1 1 13.304 0M351.416 248a7.416 7.416 0 1 1-14.832 0 7.416 7.416 0 1 1 14.832 0" opacity=".5"/><path d="M393.176 248a7.176 7.176 0 1 1-14.352 0 7.176 7.176 0 1 1 14.352 0M223.216 137a8.216 8.216 0 1 1-16.432 0 8.216 8.216 0 1 1 16.432 0M247.365 146a7.365 7.365 0 1 1-14.73 0 7.365 7.365 0 1 1 14.73 0M202.246 110a8.246 8.246 0 1 1-16.492 0 8.246 8.246 0 1 1 16.492 0M280.533 173a7.533 7.533 0 1 1-15.066 0 7.533 7.533 0 1 1 15.066 0" opacity=".5"/><path d="M226.842 125a7.842 7.842 0 1 1-15.684 0 7.842 7.842 0 1 1 15.684 0M381.782 221a6.782 6.782 0 1 1-13.564 0 6.782 6.782 0 1 1 13.564 0M310.337 224a8.337 8.337 0 1 1-16.674 0 8.337 8.337 0 1 1 16.674 0" opacity=".5"/><path d="M382.089 233a7.089 7.089 0 1 1-14.178 0 7.089 7.089 0 1 1 14.178 0M351.382 236a7.382 7.382 0 1 1-14.764 0 7.382 7.382 0 1 1 14.764 0M309.746 221a7.746 7.746 0 1 1-15.492 0 7.746 7.746 0 1 1 15.492 0M299.858 203a7.858 7.858 0 1 1-15.716 0 7.858 7.858 0 1 1 15.716 0" opacity=".5"/><path d="M289.047 212a8.047 8.047 0 1 1-16.094 0 8.047 8.047 0 1 1 16.094 0" opacity=".5"/><path d="M285.337 215a8.337 8.337 0 1 1-16.674 0 8.337 8.337 0 1 1 16.674 0M454.403 230a6.403 6.403 0 1 1-12.806 0 6.403 6.403 0 1 1 12.806 0M433.48 233a6.48 6.48 0 1 1-12.96 0 6.48 6.48 0 1 1 12.96 0M475.708 233a6.708 6.708 0 1 1-13.416 0 6.708 6.708 0 1 1 13.416 0M390.297 230a7.297 7.297 0 1 1-14.594 0 7.297 7.297 0 1 1 14.594 0M243.297 152a7.297 7.297 0 1 1-14.594 0 7.297 7.297 0 1 1 14.594 0M263.649 179a7.649 7.649 0 1 1-15.298 0 7.649 7.649 0 1 1 15.298 0M237.155 170a8.155 8.155 0 1 1-16.31 0 8.155 8.155 0 1 1 16.31 0" opacity=".5"/><path d="M265.6 173a7.6 7.6 0 1 1-15.2 0 7.6 7.6 0 1 1 15.2 0M211.89 143a7.89 7.89 0 1 1-15.78 0 7.89 7.89 0 1 1 15.78 0M253.632 125a7.632 7.632 0 1 1-15.264 0 7.632 7.632 0 1 1 15.264 0" opacity=".5"/><path d="M220.746 146a7.746 7.746 0 1 1-15.492 0 7.746 7.746 0 1 1 15.492 0M243.194 143a7.194 7.194 0 1 1-14.388 0 7.194 7.194 0 1 1 14.388 0M282.297 194a7.297 7.297 0 1 1-14.594 0 7.297 7.297 0 1 1 14.594 0M308.856 197a6.856 6.856 0 1 1-13.712 0 6.856 6.856 0 1 1 13.712 0" opacity=".5"/><path d="M309.036 197a7.036 7.036 0 1 1-14.072 0 7.036 7.036 0 1 1 14.072 0M181.846 67a8.846 8.846 0 1 1-17.692 0 8.846 8.846 0 1 1 17.692 0M218.263 109a7.263 7.263 0 1 1-14.526 0 7.263 7.263 0 1 1 14.526 0M189.411 129a8.411 8.411 0 1 1-16.822 0 8.411 8.411 0 1 1 16.822 0M227.246 90a8.246 8.246 0 1 1-16.492 0 8.246 8.246 0 1 1 16.492 0" opacity=".5"/><path d="M205.746 109a7.746 7.746 0 1 1-15.492 0 7.746 7.746 0 1 1 15.492 0M309.533 207a7.533 7.533 0 1 1-15.066 0 7.533 7.533 0 1 1 15.066 0M371.964 210a6.964 6.964 0 1 1-13.928 0 6.964 6.964 0 1 1 13.928 0" opacity=".5"/><path d="M369.856 205a6.856 6.856 0 1 1-13.712 0 6.856 6.856 0 1 1 13.712 0M300.367 211a8.367 8.367 0 1 1-16.734 0 8.367 8.367 0 1 1 16.734 0M279.155 203a8.155 8.155 0 1 1-16.31 0 8.155 8.155 0 1 1 16.31 0M257.6 205a7.6 7.6 0 1 1-15.2 0 7.6 7.6 0 1 1 15.2 0M263.517 175a7.517 7.517 0 1 1-15.034 0 7.517 7.517 0 1 1 15.034 0" opacity=".5"/><path d="M288.937 203a7.937 7.937 0 1 1-15.874 0 7.937 7.937 0 1 1 15.874 0M268.937 210a7.937 7.937 0 1 1-15.874 0 7.937 7.937 0 1 1 15.874 0" opacity=".5"/><path d="M299.6 202a7.6 7.6 0 1 1-15.2 0 7.6 7.6 0 1 1 15.2 0M257.81 201a7.81 7.81 0 1 1-15.62 0 7.81 7.81 0 1 1 15.62 0" opacity=".5"/><path d="M310.261 214a8.261 8.261 0 1 1-16.522 0 8.261 8.261 0 1 1 16.522 0M330.433 217a7.433 7.433 0 1 1-14.866 0 7.433 7.433 0 1 1 14.866 0M381.964 211a6.964 6.964 0 1 1-13.928 0 6.964 6.964 0 1 1 13.928 0M424.018 220a7.018 7.018 0 1 1-14.036 0 7.018 7.018 0 1 1 14.036 0" opacity=".5"/><path d="M369.423 217a6.423 6.423 0 1 1-12.846 0 6.423 6.423 0 1 1 12.846 0" opacity=".5"/><path d="M372.089 221a7.089 7.089 0 1 1-14.178 0 7.089 7.089 0 1 1 14.178 0M222.778 146a7.778 7.778 0 1 1-15.556 0 7.778 7.778 0 1 1 15.556 0M278.211 161a7.211 7.211 0 1 1-14.422 0 7.211 7.211 0 1 1 14.422 0" opacity=".5"/><path d="M282.348 163a7.348 7.348 0 1 1-14.696 0 7.348 7.348 0 1 1 14.696 0M236.297 141a7.297 7.297 0 1 1-14.594 0 7.297 7.297 0 1 1 14.594 0M278.365 199a7.365 7.365 0 1 1-14.73 0 7.365 7.365 0 1 1 14.73 0M299.81 187a7.81 7.81 0 1 1-15.62 0 7.81 7.81 0 1 1 15.62 0M258.016 183a8.016 8.016 0 1 1-16.032 0 8.016 8.016 0 1 1 16.032 0M282.382 183a7.382 7.382 0 1 1-14.764 0 7.382 7.382 0 1 1 14.764 0M295.632 204a7.632 7.632 0 1 1-15.264 0 7.632 7.632 0 1 1 15.264 0M340.071 224a7.071 7.071 0 1 1-14.142 0 7.071 7.071 0 1 1 14.142 0M320.583 196a7.583 7.583 0 1 1-15.166 0 7.583 7.583 0 1 1 15.166 0M357.6 229a7.6 7.6 0 1 1-15.2 0 7.6 7.6 0 1 1 15.2 0" opacity=".5"/><path d="M228.382 137a7.382 7.382 0 1 1-14.764 0 7.382 7.382 0 1 1 14.764 0" opacity=".5"/><path d="M222.794 149a7.794 7.794 0 1 1-15.588 0 7.794 7.794 0 1 1 15.588 0M320.517 197a7.517 7.517 0 1 1-15.034 0 7.517 7.517 0 1 1 15.034 0M258.155 207a8.155 8.155 0 1 1-16.31 0 8.155 8.155 0 1 1 16.31 0" opacity=".5"/><path d="M263.953 192a7.953 7.953 0 1 1-15.906 0 7.953 7.953 0 1 1 15.906 0" opacity=".5"/><path d="M269.155 205a8.155 8.155 0 1 1-16.31 0 8.155 8.155 0 1 1 16.31 0M309.794 202a7.794 7.794 0 1 1-15.588 0 7.794 7.794 0 1 1 15.588 0M351.517 224a7.517 7.517 0 1 1-15.034 0 7.517 7.517 0 1 1 15.034 0" opacity=".5"/><path d="M349.018 220a7.018 7.018 0 1 1-14.036 0 7.018 7.018 0 1 1 14.036 0M367.964 227a6.964 6.964 0 1 1-13.928 0 6.964 6.964 0 1 1 13.928 0" opacity=".5"/><path d="M361.467 217a7.467 7.467 0 1 1-14.934 0 7.467 7.467 0 1 1 14.934 0M403.382 225a7.382 7.382 0 1 1-14.764 0 7.382 7.382 0 1 1 14.764 0M376.246 233a7.246 7.246 0 1 1-14.492 0 7.246 7.246 0 1 1 14.492 0M340.416 211a7.416 7.416 0 1 1-14.832 0 7.416 7.416 0 1 1 14.832 0" opacity=".5"/><path d="M392.91 215a6.91 6.91 0 1 1-13.82 0 6.91 6.91 0 1 1 13.82 0M228.176 135a7.176 7.176 0 1 1-14.352 0 7.176 7.176 0 1 1 14.352 0M215.467 121a7.467 7.467 0 1 1-14.934 0 7.467 7.467 0 1 1 14.934 0M247.263 112a7.263 7.263 0 1 1-14.526 0 7.263 7.263 0 1 1 14.526 0M247.416 162a7.416 7.416 0 1 1-14.832 0 7.416 7.416 0 1 1 14.832 0" opacity=".5"/><path d="M241.559 174a8.559 8.559 0 1 1-17.118 0 8.559 8.559 0 1 1 17.118 0M340.969 188a7.969 7.969 0 1 1-15.938 0 7.969 7.969 0 1 1 15.938 0" opacity=".5"/><path d="M230.5 163a9.5 9.5 0 1 1-19 0 9.5 9.5 0 1 1 19 0M270 183a9 9 0 1 1-18 0 9 9 0 1 1 18 0M225.964 121a6.964 6.964 0 1 1-13.928 0 6.964 6.964 0 1 1 13.928 0" opacity=".5"/><path d="M226.382 119a7.382 7.382 0 1 1-14.764 0 7.382 7.382 0 1 1 14.764 0M216.367 135a8.367 8.367 0 1 1-16.734 0 8.367 8.367 0 1 1 16.734 0M224.348 102a7.348 7.348 0 1 1-14.696 0 7.348 7.348 0 1 1 14.696 0M268.649 156a7.649 7.649 0 1 1-15.298 0 7.649 7.649 0 1 1 15.298 0M319.461 153a6.461 6.461 0 1 1-12.922 0 6.461 6.461 0 1 1 12.922 0" opacity=".5"/><path d="M319.892 165a6.892 6.892 0 1 1-13.784 0 6.892 6.892 0 1 1 13.784 0M267.964 125a6.964 6.964 0 1 1-13.928 0 6.964 6.964 0 1 1 13.928 0M238.348 77a7.348 7.348 0 1 1-14.696 0 7.348 7.348 0 1 1 14.696 0M206.292 97a8.292 8.292 0 1 1-16.584 0 8.292 8.292 0 1 1 16.584 0M226.533 133a7.533 7.533 0 1 1-15.066 0 7.533 7.533 0 1 1 15.066 0" opacity=".5"/><path d="M215.746 103a7.746 7.746 0 1 1-15.492 0 7.746 7.746 0 1 1 15.492 0M268.778 158a7.778 7.778 0 1 1-15.556 0 7.778 7.778 0 1 1 15.556 0" opacity=".5"/><path d="M264.14 168a8.14 8.14 0 1 1-16.28 0 8.14 8.14 0 1 1 16.28 0" opacity=".5"/><path d="M269.559 180a8.559 8.559 0 1 1-17.118 0 8.559 8.559 0 1 1 17.118 0M269.261 211a8.261 8.261 0 1 1-16.522 0 8.261 8.261 0 1 1 16.522 0M243.6 120a7.6 7.6 0 1 1-15.2 0 7.6 7.6 0 1 1 15.2 0M268.533 147a7.533 7.533 0 1 1-15.066 0 7.533 7.533 0 1 1 15.066 0M237 138a8 8 0 1 1-16 0 8 8 0 1 1 16 0M272.416 104a7.416 7.416 0 1 1-14.832 0 7.416 7.416 0 1 1 14.832 0" opacity=".5"/><path d="M236.467 133a7.467 7.467 0 1 1-14.934 0 7.467 7.467 0 1 1 14.934 0M216.093 46a8.093 8.093 0 1 1-16.186 0 8.093 8.093 0 1 1 16.186 0M299.263 159a7.263 7.263 0 1 1-14.526 0 7.263 7.263 0 1 1 14.526 0M216.367 81a8.367 8.367 0 1 1-16.734 0 8.367 8.367 0 1 1 16.734 0M181.888 60a8.888 8.888 0 1 1-17.776 0 8.888 8.888 0 1 1 17.776 0" opacity=".5"/><path d="M182.287 66a9.287 9.287 0 1 1-18.574 0 9.287 9.287 0 1 1 18.574 0M221.515 108a8.515 8.515 0 1 1-17.03 0 8.515 8.515 0 1 1 17.03 0M221.916 146a8.916 8.916 0 1 1-17.832 0 8.916 8.916 0 1 1 17.832 0M220.124 58a7.124 7.124 0 1 1-14.248 0 7.124 7.124 0 1 1 14.248 0" opacity=".5"/><path d="M221.109 123a8.109 8.109 0 1 1-16.218 0 8.109 8.109 0 1 1 16.218 0M209.483 147a7.483 7.483 0 1 1-14.966 0 7.483 7.483 0 1 1 14.966 0M354.48 130a6.48 6.48 0 1 1-12.96 0 6.48 6.48 0 1 1 12.96 0M287.782 184a6.782 6.782 0 1 1-13.564 0 6.782 6.782 0 1 1 13.564 0M263.433 116a7.433 7.433 0 1 1-14.866 0 7.433 7.433 0 1 1 14.866 0" opacity=".5"/><path d="M230.89 132a7.89 7.89 0 1 1-15.78 0 7.89 7.89 0 1 1 15.78 0M255.583 163a7.583 7.583 0 1 1-15.166 0 7.583 7.583 0 1 1 15.166 0" opacity=".5"/><path d="M255.746 166a7.746 7.746 0 1 1-15.492 0 7.746 7.746 0 1 1 15.492 0M272.263 171a7.263 7.263 0 1 1-14.526 0 7.263 7.263 0 1 1 14.526 0M308.8 185a6.8 6.8 0 1 1-13.6 0 6.8 6.8 0 1 1 13.6 0M254.892 146a6.892 6.892 0 1 1-13.784 0 6.892 6.892 0 1 1 13.784 0M201.858 91a7.858 7.858 0 1 1-15.716 0 7.858 7.858 0 1 1 15.716 0" opacity=".5"/><path d="M213.746 92a7.746 7.746 0 1 1-15.492 0 7.746 7.746 0 1 1 15.492 0M205.681 115a7.681 7.681 0 1 1-15.362 0 7.681 7.681 0 1 1 15.362 0M221.062 132a8.062 8.062 0 1 1-16.124 0 8.062 8.062 0 1 1 16.124 0" opacity=".5"/><path d="M216.411 104a8.411 8.411 0 1 1-16.822 0 8.411 8.411 0 1 1 16.822 0" opacity=".5"/><path d="M209.953 100a7.953 7.953 0 1 1-15.906 0 7.953 7.953 0 1 1 15.906 0M222.649 121a7.649 7.649 0 1 1-15.298 0 7.649 7.649 0 1 1 15.298 0" opacity=".5"/><path d="M211.382 118a7.382 7.382 0 1 1-14.764 0 7.382 7.382 0 1 1 14.764 0" opacity=".5"/><path d="M215.697 120a7.697 7.697 0 1 1-15.394 0 7.697 7.697 0 1 1 15.394 0M216.69 147a8.69 8.69 0 1 1-17.38 0 8.69 8.69 0 1 1 17.38 0M234.211 128a7.211 7.211 0 1 1-14.422 0 7.211 7.211 0 1 1 14.422 0" opacity=".5"/><path d="M236.263 124a7.263 7.263 0 1 1-14.526 0 7.263 7.263 0 1 1 14.526 0" opacity=".5"/><path d="M236.842 132a7.842 7.842 0 1 1-15.684 0 7.842 7.842 0 1 1 15.684 0M288.365 129a7.365 7.365 0 1 1-14.73 0 7.365 7.365 0 1 1 14.73 0" opacity=".5"/><path d="M235.17 136a8.17 8.17 0 1 1-16.34 0 8.17 8.17 0 1 1 16.34 0M248.631 157a8.631 8.631 0 1 1-17.262 0 8.631 8.631 0 1 1 17.262 0" opacity=".5"/><path d="M239.456 142a8.456 8.456 0 1 1-16.912 0 8.456 8.456 0 1 1 16.912 0M321.8 174a6.8 6.8 0 1 1-13.6 0 6.8 6.8 0 1 1 13.6 0" opacity=".5"/><path d="M330.124 181a7.124 7.124 0 1 1-14.248 0 7.124 7.124 0 1 1 14.248 0M309.6 192a7.6 7.6 0 1 1-15.2 0 7.6 7.6 0 1 1 15.2 0M300.337 166a8.337 8.337 0 1 1-16.674 0 8.337 8.337 0 1 1 16.674 0M263.906 205a7.906 7.906 0 1 1-15.812 0 7.906 7.906 0 1 1 15.812 0M257.794 220a7.794 7.794 0 1 1-15.588 0 7.794 7.794 0 1 1 15.588 0M264.456 158a8.456 8.456 0 1 1-16.912 0 8.456 8.456 0 1 1 16.912 0" opacity=".5"/><path d="M264.246 164a8.246 8.246 0 1 1-16.492 0 8.246 8.246 0 1 1 16.492 0M264.109 122a8.109 8.109 0 1 1-16.218 0 8.109 8.109 0 1 1 16.218 0M257.697 140a7.697 7.697 0 1 1-15.394 0 7.697 7.697 0 1 1 15.394 0" opacity=".5"/><path d="M255.649 152a7.649 7.649 0 1 1-15.298 0 7.649 7.649 0 1 1 15.298 0M269.109 164a8.109 8.109 0 1 1-16.218 0 8.109 8.109 0 1 1 16.218 0M272.746 182a7.746 7.746 0 1 1-15.492 0 7.746 7.746 0 1 1 15.492 0M234.483 110a7.483 7.483 0 1 1-14.966 0 7.483 7.483 0 1 1 14.966 0" opacity=".5"/><path d="M223.155 104a8.155 8.155 0 1 1-16.31 0 8.155 8.155 0 1 1 16.31 0M223.016 140a8.016 8.016 0 1 1-16.032 0 8.016 8.016 0 1 1 16.032 0" opacity=".5"/><path d="M211.348 98a7.348 7.348 0 1 1-14.696 0 7.348 7.348 0 1 1 14.696 0M226.953 110a7.953 7.953 0 1 1-15.906 0 7.953 7.953 0 1 1 15.906 0M263.297 110a7.297 7.297 0 1 1-14.594 0 7.297 7.297 0 1 1 14.594 0" opacity=".5"/><path d="M236.297 110a7.297 7.297 0 1 1-14.594 0 7.297 7.297 0 1 1 14.594 0M226.858 122a7.858 7.858 0 1 1-15.716 0 7.858 7.858 0 1 1 15.716 0M220.416 98a7.416 7.416 0 1 1-14.832 0 7.416 7.416 0 1 1 14.832 0" opacity=".5"/><path d="M220.583 134a7.583 7.583 0 1 1-15.166 0 7.583 7.583 0 1 1 15.166 0M220.697 98a7.697 7.697 0 1 1-15.394 0 7.697 7.697 0 1 1 15.394 0M309.746 176a7.746 7.746 0 1 1-15.492 0 7.746 7.746 0 1 1 15.492 0M257.89 98a7.89 7.89 0 1 1-15.78 0 7.89 7.89 0 1 1 15.78 0M272.297 170a7.297 7.297 0 1 1-14.594 0 7.297 7.297 0 1 1 14.594 0M313.348 194a7.348 7.348 0 1 1-14.696 0 7.348 7.348 0 1 1 14.696 0M280.141 134a7.141 7.141 0 1 1-14.282 0 7.141 7.141 0 1 1 14.282 0" opacity=".5"/><path d="M254.91 110a6.91 6.91 0 1 1-13.82 0 6.91 6.91 0 1 1 13.82 0M268.953 164a7.953 7.953 0 1 1-15.906 0 7.953 7.953 0 1 1 15.906 0" opacity=".5"/><path d="M259.566 164a7.566 7.566 0 1 1-15.132 0 7.566 7.566 0 1 1 15.132 0M190.46 62a9.46 9.46 0 1 1-18.92 0 9.46 9.46 0 1 1 18.92 0M254.538 134a6.538 6.538 0 1 1-13.076 0 6.538 6.538 0 1 1 13.076 0" opacity=".5"/><path d="M246.246 158a8.246 8.246 0 1 1-16.492 0 8.246 8.246 0 1 1 16.492 0M252.411 140a8.411 8.411 0 1 1-16.822 0 8.411 8.411 0 1 1 16.822 0" opacity=".5"/></g><g class="mark-group role-legend"><path class="background" d="M603 26h88v109h-88z" pointer-events="none" fill="none"/><g class="mark-group role-legend-entry"><path class="background" d="M603 45z" pointer-events="none" fill="none"/><g class="mark-group role-scope"><path class="background" d="M603 45h41.733v12H603z" pointer-events="none" fill="none"/><path d="M613 51a1 1 0 1 1-2 0 1 1 0 1 1 2 0" fill="#41ab5d" opacity=".5" pointer-events="none"/><text transform="translate(631 55)" font-family="Open Sans" font-size="12" font-weight="400" fill="#333" pointer-events="none">0</text><path class="background" d="M603 62h41.733v12H603z" pointer-events="none" fill="none"/><path d="M616.359 68a4.359 4.359 0 1 1-8.718 0 4.359 4.359 0 1 1 8.718 0" fill="#41ab5d" opacity=".5" pointer-events="none"/><text transform="translate(631 72)" font-family="Open Sans" font-size="12" font-weight="400" fill="#333" pointer-events="none">5</text><g><path class="background" d="M603 79h41.733v12.583H603z" pointer-events="none" fill="none"/><path d="M618.083 85.5a6.083 6.083 0 1 1-12.166 0 6.083 6.083 0 1 1 12.166 0" fill="#41ab5d" opacity=".5" pointer-events="none"/><text transform="translate(631 89.5)" font-family="Open Sans" font-size="12" font-weight="400" fill="#333" pointer-events="none">10</text></g><g><path class="background" d="M603 97h41.733v14.916H603z" pointer-events="none" fill="none"/><path d="M619.416 104.5a7.416 7.416 0 1 1-14.832 0 7.416 7.416 0 1 1 14.832 0" fill="#41ab5d" opacity=".5" pointer-events="none"/><text transform="translate(631 108.5)" font-family="Open Sans" font-size="12" font-weight="400" fill="#333" pointer-events="none">15</text></g><g><path class="background" d="M603 117h41.733v17.544H603z" pointer-events="none" fill="none"/><path d="M620.544 126a8.544 8.544 0 1 1-17.088 0 8.544 8.544 0 1 1 17.088 0" fill="#41ab5d" opacity=".5" pointer-events="none"/><text transform="translate(631 130)" font-family="Open Sans" font-size="12" font-weight="400" fill="#333" pointer-events="none">20</text></g></g></g><text transform="translate(603 37)" font-family="Open Sans" font-size="14" font-weight="700" fill="#333" pointer-events="none">Acceleration</text></g></g></svg>